<?xml version="1.0" encoding="utf-8"?>
<!-- Generator: Adobe Illustrator 26.0.2, SVG Export Plug-In . SVG Version: 6.00 Build 0)  -->
<svg version="1.1" id="Publicdomainvectors.org" xmlns="http://www.w3.org/2000/svg" xmlns:xlink="http://www.w3.org/1999/xlink"
	 x="0px" y="0px" viewBox="0 0 660 660" style="enable-background:new 0 0 660 660;" xml:space="preserve">
<style type="text/css">
	.st0{fill-rule:evenodd;clip-rule:evenodd;fill:#FADD8E;}
	.st1{fill-rule:evenodd;clip-rule:evenodd;fill:#D2B35C;}
	.st2{fill-rule:evenodd;clip-rule:evenodd;fill:#FFF0C8;}
	.st3{fill-rule:evenodd;clip-rule:evenodd;fill:#D16127;}
	.st4{fill-rule:evenodd;clip-rule:evenodd;fill:#94AC3C;}
	.st5{fill-rule:evenodd;clip-rule:evenodd;fill:#A7BF39;}
	.st6{fill-rule:evenodd;clip-rule:evenodd;fill:#E1D5B7;}
	.st7{fill-rule:evenodd;clip-rule:evenodd;fill:#FFFFFF;}
	.st8{fill-rule:evenodd;clip-rule:evenodd;fill:#3B1B0D;}
	.st9{fill-rule:evenodd;clip-rule:evenodd;fill:#60280D;}
	.st10{fill-rule:evenodd;clip-rule:evenodd;fill:#82341A;}
	.st11{fill-rule:evenodd;clip-rule:evenodd;fill:#F2EBDA;}
	.st12{fill-rule:evenodd;clip-rule:evenodd;fill:#A64724;}
	.st13{fill-rule:evenodd;clip-rule:evenodd;fill:#A14223;}
	.st14{fill-rule:evenodd;clip-rule:evenodd;fill:#E8C76D;}
	.st15{fill-rule:evenodd;clip-rule:evenodd;fill:#BA9A42;}
</style>
<g>
	<rect x="-0.16" y="0" class="st0" width="660" height="660"/>
	<path class="st1" d="M531.64,411.93h31.27v-38.69c-6.73-1.39-12.81-7.64-17.49-17.12c-0.12,1.58-0.54,3.16-1.28,4.67
		c-1.51,3.03-4.08,5.18-7.04,6.22c-0.95-2.99-0.78-6.34,0.73-9.37l0.02-0.05c-0.36,0.14-0.72,0.27-1.09,0.38
		c-3.59,1.09-7.29,0.66-10.38-0.93c1.69-3.04,4.51-5.46,8.11-6.56c2.9-0.88,5.86-0.77,8.53,0.14c-3.03-7.76-5.24-17.11-6.33-27.38
		c-3.71,3.06-8.27,4.41-12.73,4.13c0.44-4.54,2.57-8.91,6.31-12.1l0.06-0.05c-0.56-0.01-1.12-0.05-1.68-0.11
		c-5.42-0.59-10.12-3.27-13.35-7.16c3.99-3.11,9.15-4.73,14.57-4.14c2.17,0.23,4.21,0.8,6.1,1.65c0.56-25.13,7.69-46.51,17.74-56.19
		c-1.62-0.77-3.09-1.92-4.25-3.44c-1.92-2.5-2.66-5.52-2.33-8.42c2.88,0.43,5.61,1.93,7.53,4.43l0.03,0.04
		c0.03-0.36,0.07-0.71,0.13-1.07c0.55-3.45,2.42-6.35,5.01-8.29c1.85,2.65,2.72,6,2.17,9.45c-0.14,0.86-0.36,1.69-0.65,2.48
		c1.45-0.47,2.94-0.72,4.45-0.72c4.08,0,7.96,1.78,11.5,4.99c0.11-0.49,0.25-0.97,0.43-1.45c1.17-3.29,3.54-5.8,6.45-7.24
		c1.34,2.95,1.57,6.4,0.4,9.68c-0.12,0.34-0.26,0.68-0.4,1l0.05-0.02c2.88-1.27,6-1.27,8.73-0.26c-1.1,2.7-3.21,4.99-6.09,6.26
		c-0.87,0.38-1.77,0.65-2.67,0.81c5.73,9.76,9.79,23.98,11.05,40.26c0.76-0.77,1.61-1.47,2.55-2.08c3.56-2.34,7.73-3.06,11.61-2.32
		c-0.86,3.86-3.16,7.4-6.73,9.74c-0.37,0.24-0.75,0.47-1.13,0.68l0.06,0.01c3.74,0.88,6.79,3.17,8.71,6.16
		c-3.06,1.82-6.8,2.51-10.54,1.63c-1.49-0.35-2.87-0.93-4.11-1.68c-0.19,21.91-5.38,41.16-13.19,52.6c0.5,0.15,0.99,0.34,1.48,0.54
		c3.55,1.54,6.17,4.35,7.54,7.67c-3.36,1.26-7.2,1.28-10.75-0.26l-0.06-0.02c0.18,0.4,0.35,0.81,0.51,1.23
		c1.47,4.04,1.2,8.29-0.43,11.93c-3.58-1.74-6.52-4.83-7.99-8.87c-0.31-0.86-0.55-1.73-0.71-2.6c-1.11,0.52-2.25,0.9-3.4,1.14v38.69
		h31.26l-4.28,105.03h-59.67L531.64,411.93z"/>
	<g>
		<polygon class="st1" points="119.19,382.89 63.62,320.48 63.62,338.25 119.19,400.66 		"/>
		<g>
			<path class="st1" d="M110.98,391.44c-2.32-2.6-4.64-5.21-6.95-7.81c0,53.73,0,107.46,0,161.19c2.32,2.61,4.64,5.21,6.95,7.81
				C110.98,498.9,110.98,445.17,110.98,391.44z"/>
			<path class="st1" d="M110.98,491.24c-0.32-4.52-6.57-9.12-6.95-0.67c0-5.92,0-11.85,0-17.77c2.32,2.6,4.64,5.21,6.95,7.81
				C110.98,484.15,110.98,487.69,110.98,491.24z"/>
			<path class="st1" d="M107.5,453.69c-4.37-4.9-7.91-2.42-7.91,5.56c0,7.97,3.54,18.41,7.91,23.32c4.37,4.91,7.91,2.42,7.91-5.55
				C115.42,469.04,111.87,458.6,107.5,453.69z"/>
			<path class="st1" d="M107.5,455.24c-2.44-2.74-4.41-2.07-4.41,1.49c0,3.56,1.97,8.66,4.41,11.4c2.44,2.74,4.42,2.07,4.42-1.49
				C111.92,463.08,109.94,457.97,107.5,455.24z"/>
			<path class="st1" d="M110.98,402.07c-0.32-4.52-6.57-9.12-6.95-0.67c0-5.92,0-11.84,0-17.77c2.32,2.6,4.64,5.21,6.95,7.81
				C110.98,394.99,110.98,398.53,110.98,402.07z"/>
		</g>
		<g>
			<polygon class="st1" points="81.86,358.73 74.9,350.92 74.9,512.11 81.86,519.92 			"/>
			<path class="st1" d="M81.86,458.53c-0.32-4.52-6.57-9.12-6.95-0.67v-17.77l6.95,7.81V458.53z"/>
			<path class="st1" d="M78.38,420.99c-4.37-4.91-7.91-2.42-7.91,5.55c0,7.97,3.54,18.42,7.91,23.32c4.37,4.91,7.91,2.42,7.91-5.56
				C86.29,436.33,82.75,425.89,78.38,420.99z"/>
			<path class="st1" d="M78.38,422.53c-2.44-2.74-4.41-2.07-4.41,1.49s1.98,8.67,4.41,11.4c2.44,2.74,4.41,2.07,4.41-1.49
				C82.79,430.37,80.82,425.26,78.38,422.53z"/>
			<path class="st1" d="M81.86,369.36c-0.32-4.52-6.57-9.12-6.95-0.67v-17.77l6.95,7.81V369.36z"/>
		</g>
	</g>
	<path class="st2" d="M215.88,155.84c-14.08,0-28.17,0-42.26,0c0,9.89,0,19.78,0,29.67c14.09,0,28.17,0,42.26,0
		C215.88,175.61,215.88,165.73,215.88,155.84L215.88,155.84z M443.8,155.84c14.09,0,28.17,0,42.26,0c0,9.89,0,19.78,0,29.67
		c-14.09,0-28.17,0-42.26,0C443.8,175.61,443.8,165.73,443.8,155.84L443.8,155.84z M443.8,70.05h42.26v29.67H443.8V70.05
		L443.8,70.05z M443.8,114.84h33.14v23.27H443.8V114.84L443.8,114.84z M443.8,241.62c14.09,0,28.17,0,42.26,0
		c0,9.89,0,19.78,0,29.67c-14.09,0-28.17,0-42.26,0C443.8,261.4,443.8,251.51,443.8,241.62L443.8,241.62z M443.8,327.41
		c14.09,0,28.17,0,42.26,0c0,9.89,0,19.78,0,29.67c-14.09,0-28.17,0-42.26,0C443.8,347.19,443.8,337.3,443.8,327.41L443.8,327.41z
		 M443.8,413.2h42.26v29.67H443.8V413.2L443.8,413.2z M443.8,457.99h33.14v23.27H443.8V457.99L443.8,457.99z M443.8,372.2
		c11.05,0,22.09,0,33.14,0c0,7.76,0,15.51,0,23.27c-11.05,0-22.09,0-33.14,0C443.8,387.72,443.8,379.96,443.8,372.2L443.8,372.2z
		 M443.8,286.42c11.05,0,22.09,0,33.14,0c0,7.76,0,15.51,0,23.27c-11.05,0-22.09,0-33.14,0C443.8,301.93,443.8,294.17,443.8,286.42
		L443.8,286.42z M443.8,200.63c11.05,0,22.09,0,33.14,0c0,7.76,0,15.51,0,23.27c-11.05,0-22.09,0-33.14,0
		C443.8,216.14,443.8,208.39,443.8,200.63L443.8,200.63z M215.88,70.05h-42.26v29.67h42.26V70.05L215.88,70.05z M215.88,114.84
		h-33.14v23.27h33.14V114.84L215.88,114.84z M215.88,241.62c-14.08,0-28.17,0-42.26,0c0,9.89,0,19.78,0,29.67
		c14.09,0,28.17,0,42.26,0C215.88,261.4,215.88,251.51,215.88,241.62L215.88,241.62z M215.88,327.41c-14.08,0-28.17,0-42.26,0
		c0,9.89,0,19.78,0,29.67c14.09,0,28.17,0,42.26,0C215.88,347.19,215.88,337.3,215.88,327.41L215.88,327.41z M215.88,413.2h-42.26
		v29.67h42.26V413.2L215.88,413.2z M215.88,457.99h-33.14v23.27h33.14V457.99L215.88,457.99z M215.88,372.2
		c-11.05,0-22.09,0-33.14,0c0,7.76,0,15.51,0,23.27c11.05,0,22.09,0,33.14,0C215.88,387.72,215.88,379.96,215.88,372.2L215.88,372.2
		z M215.88,286.42c-11.05,0-22.09,0-33.14,0c0,7.76,0,15.51,0,23.27c11.05,0,22.09,0,33.14,0
		C215.88,301.93,215.88,294.17,215.88,286.42L215.88,286.42z M215.88,200.63c-11.05,0-22.09,0-33.14,0c0,7.76,0,15.51,0,23.27
		c11.05,0,22.09,0,33.14,0C215.88,216.14,215.88,208.39,215.88,200.63z"/>
	<g>
		<rect x="119.19" y="382.89" class="st1" width="532.45" height="17.77"/>
		<g>
			<rect x="139.79" y="400.66" class="st1" width="12.69" height="161.19"/>
			<path class="st1" d="M139.79,500.46c0.58-4.16,11.99-1.74,12.69,7.14v-17.77h-12.69V500.46z"/>
			<path class="st1" d="M146.14,495.7c7.95,0,14.44-6.49,14.44-14.44c0-7.95-6.49-14.44-14.44-14.44c-7.95,0-14.44,6.49-14.44,14.44
				C131.7,489.21,138.19,495.7,146.14,495.7z"/>
			<path class="st1" d="M146.14,481.26c4.44,0,8.05-2.9,8.05-6.45c0-3.55-3.62-6.45-8.05-6.45c-4.44,0-8.06,2.9-8.06,6.45
				C138.08,478.36,141.7,481.26,146.14,481.26z"/>
			<path class="st1" d="M139.79,411.29c0.58-4.16,11.99-1.74,12.69,7.14v-17.77h-12.69V411.29z"/>
		</g>
		<g>
			<g>
				<path class="st1" d="M192.97,400.66c4.23,0,8.46,0,12.69,0c0,53.73,0,107.46,0,161.19c-4.23,0-8.46,0-12.69,0
					C192.97,508.12,192.97,454.39,192.97,400.66z"/>
				<path class="st1" d="M192.97,500.46c0.58-4.16,11.99-1.74,12.69,7.14c0-5.92,0-11.85,0-17.77c-4.23,0-8.46,0-12.69,0
					C192.97,493.37,192.97,496.91,192.97,500.46z"/>
				<path class="st1" d="M199.31,466.82c7.97,0,14.44,6.46,14.44,14.44c0,7.97-6.46,14.44-14.44,14.44
					c-7.97,0-14.44-6.47-14.44-14.44C184.87,473.28,191.34,466.82,199.31,466.82z"/>
				<path class="st1" d="M199.31,468.36c4.45,0,8.06,2.89,8.06,6.45c0,3.56-3.61,6.45-8.06,6.45c-4.45,0-8.06-2.89-8.06-6.45
					C191.26,471.25,194.86,468.36,199.31,468.36z"/>
				<path class="st1" d="M192.97,411.29c0.58-4.16,11.99-1.74,12.69,7.14c0-5.92,0-11.84,0-17.77c-4.23,0-8.46,0-12.69,0
					C192.97,404.21,192.97,407.75,192.97,411.29z"/>
			</g>
			<g>
				<ellipse class="st1" cx="252.49" cy="481.26" rx="8.97" ry="113.98"/>
				<path class="st1" d="M246.14,500.46c0.58-4.16,11.99-1.74,12.69,7.14c0-5.92,0-11.85,0-17.77c-4.23,0-8.46,0-12.69,0
					C246.14,493.37,246.14,496.91,246.14,500.46z"/>
				<path class="st1" d="M252.49,466.82c7.97,0,14.44,6.46,14.44,14.44c0,7.97-6.46,14.44-14.44,14.44
					c-7.97,0-14.44-6.47-14.44-14.44C238.05,473.28,244.51,466.82,252.49,466.82z"/>
				<path class="st1" d="M252.49,468.36c4.45,0,8.05,2.89,8.05,6.45c0,3.56-3.6,6.45-8.05,6.45c-4.45,0-8.06-2.89-8.06-6.45
					C244.43,471.25,248.04,468.36,252.49,468.36z"/>
				<path class="st1" d="M246.14,411.29c0.58-4.16,11.99-1.74,12.69,7.14c0-5.92,0-11.84,0-17.77c-4.23,0-8.46,0-12.69,0
					C246.14,404.21,246.14,407.75,246.14,411.29z"/>
			</g>
			<g>
				<path class="st1" d="M299.31,400.66c4.23,0,8.46,0,12.69,0c0,53.73,0,107.46,0,161.19c-4.23,0-8.46,0-12.69,0
					C299.31,508.12,299.31,454.39,299.31,400.66z"/>
				<path class="st1" d="M299.31,500.46c0.58-4.16,11.99-1.74,12.69,7.14c0-5.92,0-11.85,0-17.77c-4.23,0-8.46,0-12.69,0
					C299.31,493.37,299.31,496.91,299.31,500.46z"/>
				<path class="st1" d="M305.66,466.82c7.97,0,14.44,6.46,14.44,14.44c0,7.97-6.46,14.44-14.44,14.44s-14.44-6.47-14.44-14.44
					C291.22,473.28,297.68,466.82,305.66,466.82z"/>
				<path class="st1" d="M305.66,468.36c4.45,0,8.06,2.89,8.06,6.45c0,3.56-3.61,6.45-8.06,6.45s-8.06-2.89-8.06-6.45
					C297.6,471.25,301.21,468.36,305.66,468.36z"/>
				<path class="st1" d="M299.31,411.29c0.58-4.16,11.99-1.74,12.69,7.14c0-5.92,0-11.84,0-17.77c-4.23,0-8.46,0-12.69,0
					C299.31,404.21,299.31,407.75,299.31,411.29z"/>
			</g>
			<g>
				<path class="st1" d="M352.49,400.66c4.23,0,8.46,0,12.69,0c0,53.73,0,107.46,0,161.19c-4.23,0-8.46,0-12.69,0
					C352.49,508.12,352.49,454.39,352.49,400.66z"/>
				<path class="st1" d="M352.49,500.46c0.58-4.16,11.99-1.74,12.69,7.14c0-5.92,0-11.85,0-17.77c-4.23,0-8.46,0-12.69,0
					C352.49,493.37,352.49,496.91,352.49,500.46z"/>
				<path class="st1" d="M358.83,466.82c7.97,0,14.44,6.46,14.44,14.44c0,7.97-6.46,14.44-14.44,14.44s-14.44-6.47-14.44-14.44
					C344.39,473.28,350.86,466.82,358.83,466.82z"/>
				<path class="st1" d="M358.83,468.36c4.45,0,8.06,2.89,8.06,6.45c0,3.56-3.61,6.45-8.06,6.45c-4.45,0-8.05-2.89-8.05-6.45
					C350.77,471.25,354.38,468.36,358.83,468.36z"/>
				<path class="st1" d="M352.49,411.29c0.58-4.16,11.99-1.74,12.69,7.14c0-5.92,0-11.84,0-17.77c-4.23,0-8.46,0-12.69,0
					C352.49,404.21,352.49,407.75,352.49,411.29z"/>
			</g>
			<g>
				<path class="st1" d="M405.66,400.66c4.23,0,8.46,0,12.69,0c0,53.73,0,107.46,0,161.19c-4.23,0-8.46,0-12.69,0
					C405.66,508.12,405.66,454.39,405.66,400.66z"/>
				<path class="st1" d="M405.66,500.46c0.58-4.16,11.99-1.74,12.69,7.14c0-5.92,0-11.85,0-17.77c-4.23,0-8.46,0-12.69,0
					C405.66,493.37,405.66,496.91,405.66,500.46z"/>
				<path class="st1" d="M412,466.82c7.97,0,14.44,6.46,14.44,14.44c0,7.97-6.46,14.44-14.44,14.44c-7.97,0-14.44-6.47-14.44-14.44
					C397.56,473.28,404.03,466.82,412,466.82z"/>
				<path class="st1" d="M412,468.36c4.45,0,8.06,2.89,8.06,6.45c0,3.56-3.61,6.45-8.06,6.45c-4.45,0-8.05-2.89-8.05-6.45
					C403.95,471.25,407.55,468.36,412,468.36z"/>
				<path class="st1" d="M405.66,411.29c0.58-4.16,11.99-1.74,12.69,7.14c0-5.92,0-11.84,0-17.77c-4.23,0-8.46,0-12.69,0
					C405.66,404.21,405.66,407.75,405.66,411.29z"/>
			</g>
			<g>
				<path class="st1" d="M458.83,400.66c4.23,0,8.46,0,12.69,0c0,53.73,0,107.46,0,161.19c-4.23,0-8.46,0-12.69,0
					C458.83,508.12,458.83,454.39,458.83,400.66z"/>
				<path class="st1" d="M458.83,500.46c0.58-4.16,11.99-1.74,12.69,7.14c0-5.92,0-11.85,0-17.77c-4.23,0-8.46,0-12.69,0
					C458.83,493.37,458.83,496.91,458.83,500.46z"/>
				<path class="st1" d="M465.17,466.82c7.97,0,14.44,6.46,14.44,14.44c0,7.97-6.46,14.44-14.44,14.44
					c-7.98,0-14.44-6.47-14.44-14.44C450.74,473.28,457.2,466.82,465.17,466.82z"/>
				<path class="st1" d="M465.17,468.36c4.45,0,8.05,2.89,8.05,6.45c0,3.56-3.61,6.45-8.05,6.45c-4.45,0-8.06-2.89-8.06-6.45
					C457.12,471.25,460.73,468.36,465.17,468.36z"/>
				<path class="st1" d="M458.83,411.29c0.58-4.16,11.99-1.74,12.69,7.14c0-5.92,0-11.84,0-17.77c-4.23,0-8.46,0-12.69,0
					C458.83,404.21,458.83,407.75,458.83,411.29z"/>
			</g>
			<g>
				<path class="st1" d="M512,400.66c4.23,0,8.46,0,12.69,0c0,53.73,0,107.46,0,161.19c-4.23,0-8.46,0-12.69,0
					C512,508.12,512,454.39,512,400.66z"/>
				<path class="st1" d="M512,500.46c0.58-4.16,11.99-1.74,12.69,7.14c0-5.92,0-11.85,0-17.77c-4.23,0-8.46,0-12.69,0
					C512,493.37,512,496.91,512,500.46z"/>
				<path class="st1" d="M518.35,466.82c7.97,0,14.44,6.46,14.44,14.44c0,7.97-6.46,14.44-14.44,14.44
					c-7.97,0-14.44-6.47-14.44-14.44C503.91,473.28,510.37,466.82,518.35,466.82z"/>
				<path class="st1" d="M518.35,468.36c4.45,0,8.05,2.89,8.05,6.45c0,3.56-3.61,6.45-8.05,6.45c-4.45,0-8.06-2.89-8.06-6.45
					C510.29,471.25,513.9,468.36,518.35,468.36z"/>
				<path class="st1" d="M512,411.29c0.58-4.16,11.99-1.74,12.69,7.14c0-5.92,0-11.84,0-17.77c-4.23,0-8.46,0-12.69,0
					C512,404.21,512,407.75,512,411.29z"/>
			</g>
			<g>
				<ellipse class="st1" cx="571.52" cy="481.26" rx="8.97" ry="113.98"/>
				<path class="st1" d="M565.17,500.46c0.58-4.16,11.99-1.74,12.69,7.14c0-5.92,0-11.85,0-17.77c-4.23,0-8.46,0-12.69,0
					C565.17,493.37,565.17,496.91,565.17,500.46z"/>
				<path class="st1" d="M571.52,466.82c7.97,0,14.44,6.46,14.44,14.44c0,7.97-6.46,14.44-14.44,14.44
					c-7.97,0-14.44-6.47-14.44-14.44C557.08,473.28,563.54,466.82,571.52,466.82z"/>
				<path class="st1" d="M571.52,468.36c4.45,0,8.06,2.89,8.06,6.45c0,3.56-3.61,6.45-8.06,6.45c-4.45,0-8.06-2.89-8.06-6.45
					C563.46,471.25,567.07,468.36,571.52,468.36z"/>
				<path class="st1" d="M565.17,411.29c0.58-4.16,11.99-1.74,12.69,7.14c0-5.92,0-11.84,0-17.77c-4.23,0-8.46,0-12.69,0
					C565.17,404.21,565.17,407.75,565.17,411.29z"/>
			</g>
		</g>
		<g>
			<rect x="618.34" y="400.66" class="st1" width="12.69" height="161.19"/>
			<path class="st1" d="M618.34,500.46c0.58-4.16,11.99-1.74,12.69,7.14v-17.77h-12.69V500.46z"/>
			<path class="st1" d="M624.69,495.7c7.95,0,14.44-6.49,14.44-14.44c0-7.95-6.48-14.44-14.44-14.44c-7.95,0-14.44,6.49-14.44,14.44
				C610.25,489.21,616.74,495.7,624.69,495.7z"/>
			<path class="st1" d="M624.69,481.26c4.44,0,8.06-2.9,8.06-6.45c0-3.55-3.62-6.45-8.06-6.45c-4.44,0-8.06,2.9-8.06,6.45
				C616.63,478.36,620.25,481.26,624.69,481.26z"/>
			<path class="st1" d="M618.34,411.29c0.58-4.16,11.99-1.74,12.69,7.14v-17.77h-12.69V411.29z"/>
		</g>
	</g>
	<path class="st1" d="M118.28,411.93h31.26v-38.69c-6.73-1.39-12.81-7.64-17.49-17.12c-0.12,1.58-0.53,3.16-1.28,4.67
		c-1.51,3.03-4.08,5.18-7.04,6.22c-0.95-2.99-0.78-6.34,0.73-9.37l0.03-0.05c-0.36,0.14-0.72,0.27-1.1,0.38
		c-3.59,1.09-7.29,0.66-10.38-0.93c1.69-3.04,4.51-5.46,8.11-6.56c2.9-0.88,5.86-0.77,8.53,0.14c-3.03-7.76-5.24-17.11-6.33-27.38
		c-3.7,3.06-8.27,4.41-12.73,4.13c0.44-4.54,2.57-8.91,6.31-12.1l0.06-0.05c-0.56-0.01-1.12-0.05-1.68-0.11
		c-5.43-0.59-10.12-3.27-13.35-7.16c3.99-3.11,9.15-4.73,14.57-4.14c2.17,0.23,4.21,0.8,6.1,1.65c0.56-25.13,7.69-46.51,17.74-56.19
		c-1.62-0.77-3.09-1.92-4.25-3.44c-1.91-2.5-2.66-5.52-2.33-8.42c2.88,0.43,5.61,1.93,7.53,4.43l0.03,0.04
		c0.03-0.36,0.07-0.71,0.13-1.07c0.55-3.45,2.42-6.35,5.01-8.29c1.85,2.65,2.72,6,2.17,9.45c-0.14,0.86-0.36,1.69-0.65,2.48
		c1.45-0.47,2.94-0.72,4.45-0.72c4.08,0,7.96,1.78,11.5,4.99c0.11-0.49,0.26-0.97,0.43-1.45c1.18-3.29,3.55-5.8,6.45-7.24
		c1.33,2.95,1.57,6.4,0.4,9.68c-0.12,0.34-0.26,0.68-0.4,1l0.05-0.02c2.88-1.27,6-1.27,8.73-0.26c-1.1,2.7-3.21,4.99-6.09,6.26
		c-0.87,0.38-1.77,0.65-2.67,0.81c5.73,9.76,9.78,23.98,11.05,40.26c0.76-0.77,1.61-1.47,2.55-2.08c3.56-2.34,7.73-3.06,11.61-2.32
		c-0.86,3.86-3.16,7.4-6.73,9.74c-0.37,0.24-0.75,0.47-1.13,0.68l0.06,0.01c3.74,0.88,6.78,3.17,8.71,6.16
		c-3.06,1.82-6.8,2.51-10.54,1.63c-1.49-0.35-2.87-0.93-4.12-1.68c-0.19,21.91-5.38,41.16-13.19,52.6c0.5,0.15,0.99,0.34,1.48,0.54
		c3.55,1.54,6.17,4.35,7.54,7.67c-3.36,1.26-7.2,1.28-10.75-0.26l-0.06-0.02c0.18,0.4,0.35,0.81,0.51,1.23
		c1.47,4.04,1.2,8.29-0.43,11.93c-3.58-1.74-6.52-4.83-7.99-8.87c-0.31-0.86-0.55-1.73-0.71-2.6c-1.11,0.52-2.25,0.9-3.4,1.14v38.69
		h31.27l-4.28,105.03h-59.68L118.28,411.93z"/>
	<g>
		<polygon class="st3" points="89.02,394.41 157.27,394.41 152.98,499.44 93.31,499.44 		"/>
		<rect x="120.29" y="292.24" class="st4" width="5.71" height="102.17"/>
		<path class="st4" d="M123.14,356.02c16.44,0,29.86-29.16,29.86-64.91c0-35.75-13.41-64.91-29.86-64.91
			c-16.45,0-29.86,29.16-29.86,64.91C93.29,326.86,106.7,356.02,123.14,356.02z"/>
		<path class="st5" d="M117.3,239.04c8.52,0,14.12,15.01,12.51,33.52c-1.6,18.51-9.81,33.52-18.32,33.52
			c-8.52,0-14.12-15.01-12.51-33.52C100.58,254.05,108.79,239.04,117.3,239.04z"/>
		<g>
			<path class="st4" d="M166.74,275.83c-0.86,3.86-3.17,7.4-6.73,9.74c-3.56,2.34-7.73,3.06-11.61,2.32
				c0.86-3.86,3.16-7.4,6.73-9.74C158.69,275.8,162.86,275.09,166.74,275.83z"/>
			<path class="st4" d="M167.65,292.43c-3.06,1.82-6.81,2.51-10.54,1.63c-3.74-0.88-6.79-3.17-8.71-6.16
				c3.06-1.82,6.8-2.51,10.54-1.63C162.68,287.14,165.73,289.43,167.65,292.43z"/>
		</g>
		<g>
			<path class="st4" d="M141.52,222.5c1.34,2.95,1.57,6.4,0.4,9.68c-1.17,3.29-3.54,5.81-6.45,7.24c-1.34-2.95-1.58-6.4-0.41-9.68
				C136.24,226.45,138.61,223.93,141.52,222.5z"/>
			<path class="st4" d="M150.29,232.9c-1.1,2.7-3.21,4.99-6.09,6.26c-2.88,1.27-5.99,1.27-8.73,0.26c1.1-2.7,3.21-4.99,6.09-6.26
				C144.44,231.9,147.56,231.89,150.29,232.9z"/>
		</g>
		<g>
			<path class="st4" d="M117.18,214.99c-2.59,1.94-4.46,4.85-5.01,8.29c-0.55,3.45,0.31,6.79,2.17,9.45
				c2.59-1.94,4.46-4.85,5.01-8.29C119.9,220.99,119.03,217.65,117.18,214.99z"/>
			<path class="st4" d="M104.48,219.89c-0.33,2.9,0.41,5.92,2.33,8.42c1.91,2.5,4.64,4,7.53,4.43c0.33-2.9-0.41-5.92-2.32-8.42
				C110.09,221.82,107.36,220.32,104.48,219.89z"/>
		</g>
		<g>
			<path class="st4" d="M72.65,290.43c3.23,3.89,7.93,6.57,13.35,7.16c5.42,0.59,10.58-1.04,14.57-4.14
				c-3.23-3.89-7.92-6.57-13.35-7.16C81.8,285.7,76.65,287.32,72.65,290.43z"/>
			<path class="st4" d="M81.32,309.86c4.54,0.29,9.21-1.12,12.95-4.31c3.74-3.19,5.88-7.57,6.31-12.1
				c-4.55-0.29-9.21,1.12-12.95,4.31C83.88,300.94,81.75,305.32,81.32,309.86z"/>
		</g>
		<g>
			<path class="st4" d="M138.1,366.05c1.62-3.64,1.9-7.89,0.43-11.93c-1.47-4.04-4.41-7.12-7.99-8.87
				c-1.62,3.64-1.89,7.89-0.43,11.93C131.58,361.23,134.52,364.31,138.1,366.05z"/>
			<path class="st4" d="M148.83,353.18c-1.38-3.32-3.99-6.12-7.54-7.66c-3.56-1.54-7.39-1.52-10.75-0.26
				c1.38,3.32,3.99,6.12,7.54,7.66C141.63,354.46,145.47,354.45,148.83,353.18z"/>
		</g>
		<g>
			<path class="st4" d="M83.75,339.52c3.1,1.59,6.79,2.02,10.38,0.93c3.59-1.09,6.42-3.51,8.11-6.55c-3.1-1.59-6.79-2.02-10.38-0.93
				C88.26,334.06,85.44,336.48,83.75,339.52z"/>
			<path class="st4" d="M94.47,349.49c2.96-1.04,5.53-3.19,7.04-6.22c1.51-3.03,1.68-6.38,0.73-9.36c-2.96,1.04-5.53,3.19-7.04,6.22
				C93.69,343.15,93.53,346.5,94.47,349.49z"/>
		</g>
	</g>
	<g>
		<path class="st6" d="M182.74,382.89h33.14v12.58c-11.05,0-22.09,0-33.14,0V382.89L182.74,382.89z M443.8,382.89h33.14v12.58
			c-11.05,0-22.09,0-33.14,0V382.89z"/>
		<path class="st6" d="M205.66,413.2v29.67h-12.69V413.2H205.66L205.66,413.2z M205.66,457.99v23.27h-12.69v-23.27H205.66z"/>
		<path class="st6" d="M199.31,466.82c7.97,0,14.44,6.46,14.44,14.44h-28.88C184.87,473.28,191.34,466.82,199.31,466.82z"/>
		<path class="st6" d="M199.31,468.36c4.45,0,8.06,2.89,8.06,6.45c0,3.56-3.61,6.45-8.06,6.45c-4.45,0-8.06-2.89-8.06-6.45
			C191.26,471.25,194.86,468.36,199.31,468.36z"/>
		<path class="st6" d="M203.63,413.2c1.09,1.38,1.86,3.12,2.03,5.23v-5.23H203.63z"/>
		<path class="st6" d="M471.52,413.2v29.67h-12.69V413.2H471.52L471.52,413.2z M471.52,457.99v23.27h-12.69v-23.27H471.52z"/>
		<path class="st6" d="M465.17,466.82c4.86,0,9.15,2.4,11.77,6.07v8.37h-26.21C450.74,473.28,457.2,466.82,465.17,466.82z"/>
		<path class="st6" d="M465.17,468.36c4.45,0,8.05,2.89,8.05,6.45c0,3.56-3.61,6.45-8.05,6.45c-4.45,0-8.06-2.89-8.06-6.45
			C457.12,471.25,460.73,468.36,465.17,468.36z"/>
		<path class="st6" d="M469.49,413.2c1.09,1.38,1.86,3.12,2.03,5.23v-5.23H469.49z"/>
	</g>
	<rect x="215.88" y="70.05" class="st2" width="227.92" height="429.39"/>
	<g>
		<rect x="215.88" y="382.89" class="st6" width="227.92" height="17.77"/>
		<path class="st6" d="M258.83,499.44h-12.69v-98.78c4.23,0,8.46,0,12.69,0V499.44z"/>
		<path class="st6" d="M258.83,499.44h-5.69c-2.66-1.28-5.47-1.29-6.55,0h-0.45v-9.62c4.23,0,8.46,0,12.69,0V499.44z"/>
		<path class="st6" d="M252.49,466.82c7.97,0,14.44,6.46,14.44,14.44c0,7.97-6.46,14.44-14.44,14.44c-7.97,0-14.44-6.47-14.44-14.44
			C238.05,473.28,244.51,466.82,252.49,466.82z"/>
		<path class="st6" d="M252.49,468.36c4.45,0,8.05,2.89,8.05,6.45c0,3.56-3.6,6.45-8.05,6.45c-4.45,0-8.06-2.89-8.06-6.45
			C244.43,471.25,248.04,468.36,252.49,468.36z"/>
		<path class="st6" d="M246.14,411.29c0.58-4.16,11.99-1.74,12.69,7.14c0-5.92,0-11.84,0-17.77c-4.23,0-8.46,0-12.69,0
			C246.14,404.21,246.14,407.75,246.14,411.29z"/>
		<path class="st6" d="M312,499.44h-12.69v-98.78c4.23,0,8.46,0,12.69,0V499.44z"/>
		<path class="st6" d="M312,499.44h-5.69c-2.66-1.28-5.47-1.29-6.56,0h-0.45v-9.62c4.23,0,8.46,0,12.69,0V499.44z"/>
		<path class="st6" d="M305.66,466.82c7.97,0,14.44,6.46,14.44,14.44c0,7.97-6.46,14.44-14.44,14.44s-14.44-6.47-14.44-14.44
			C291.22,473.28,297.68,466.82,305.66,466.82z"/>
		<path class="st6" d="M305.66,468.36c4.45,0,8.06,2.89,8.06,6.45c0,3.56-3.61,6.45-8.06,6.45s-8.06-2.89-8.06-6.45
			C297.6,471.25,301.21,468.36,305.66,468.36z"/>
		<path class="st6" d="M299.31,411.29c0.58-4.16,11.99-1.74,12.69,7.14c0-5.92,0-11.84,0-17.77c-4.23,0-8.46,0-12.69,0
			C299.31,404.21,299.31,407.75,299.31,411.29z"/>
		<path class="st6" d="M365.18,499.44h-12.69v-98.78c4.23,0,8.46,0,12.69,0V499.44z"/>
		<path class="st6" d="M365.18,499.44h-5.69c-2.66-1.28-5.47-1.29-6.56,0h-0.44v-9.62c4.23,0,8.46,0,12.69,0V499.44z"/>
		<path class="st6" d="M358.83,466.82c7.97,0,14.44,6.46,14.44,14.44c0,7.97-6.46,14.44-14.44,14.44s-14.44-6.47-14.44-14.44
			C344.39,473.28,350.86,466.82,358.83,466.82z"/>
		<path class="st6" d="M358.83,468.36c4.45,0,8.06,2.89,8.06,6.45c0,3.56-3.61,6.45-8.06,6.45c-4.45,0-8.05-2.89-8.05-6.45
			C350.77,471.25,354.38,468.36,358.83,468.36z"/>
		<path class="st6" d="M352.49,411.29c0.58-4.16,11.99-1.74,12.69,7.14c0-5.92,0-11.84,0-17.77c-4.23,0-8.46,0-12.69,0
			C352.49,404.21,352.49,407.75,352.49,411.29z"/>
		<path class="st6" d="M418.35,499.44h-12.69v-98.78c4.23,0,8.46,0,12.69,0V499.44z"/>
		<path class="st6" d="M418.35,499.44h-5.69c-2.66-1.28-5.47-1.29-6.55,0h-0.45v-9.62c4.23,0,8.46,0,12.69,0V499.44z"/>
		<path class="st6" d="M412,466.82c7.97,0,14.44,6.46,14.44,14.44c0,7.97-6.46,14.44-14.44,14.44c-7.97,0-14.44-6.47-14.44-14.44
			C397.56,473.28,404.03,466.82,412,466.82z"/>
		<path class="st6" d="M412,468.36c4.45,0,8.06,2.89,8.06,6.45c0,3.56-3.61,6.45-8.06,6.45c-4.45,0-8.05-2.89-8.05-6.45
			C403.95,471.25,407.55,468.36,412,468.36z"/>
		<path class="st6" d="M405.66,411.29c0.58-4.16,11.99-1.74,12.69,7.14c0-5.92,0-11.84,0-17.77c-4.23,0-8.46,0-12.69,0
			C405.66,404.21,405.66,407.75,405.66,411.29z"/>
	</g>
	<polygon class="st1" points="63.62,575.28 113.75,625.41 647.78,625.41 647.78,550.05 596.06,499.44 	"/>
	<rect x="63.62" y="499.44" class="st7" width="532.44" height="17.14"/>
	<rect x="230.86" y="85.03" class="st8" width="197.95" height="414.4"/>
	<path class="st9" d="M230.86,149.06h197.95v48.87H230.86V149.06L230.86,149.06z M230.86,232.19h197.95v71.15H230.86V232.19z"/>
	<polygon class="st9" points="326.82,85.03 332.86,85.03 332.86,129.68 405.41,129.68 405.41,277.1 332.86,277.1 332.86,499.44 
		326.82,499.44 326.82,277.1 254.27,277.1 254.27,129.68 326.82,129.68 	"/>
	<path class="st10" d="M405.41,149.06v48.87H254.27v-48.87H405.41L405.41,149.06z M405.41,232.19v44.91h-72.55v26.24h-6.05V277.1
		h-72.55v-44.91H405.41z"/>
	<g>
		<polygon class="st3" points="502.38,394.41 570.62,394.41 566.34,499.44 506.67,499.44 		"/>
		<rect x="533.65" y="292.24" class="st4" width="5.71" height="102.17"/>
		<path class="st4" d="M536.5,356.02c16.45,0,29.86-29.16,29.86-64.91c0-35.75-13.41-64.91-29.86-64.91
			c-16.44,0-29.86,29.16-29.86,64.91C506.65,326.86,520.06,356.02,536.5,356.02z"/>
		<path class="st5" d="M530.66,239.04c8.52,0,14.12,15.01,12.51,33.52c-1.6,18.51-9.81,33.52-18.32,33.52
			c-8.52,0-14.12-15.01-12.51-33.52C513.94,254.05,522.15,239.04,530.66,239.04z"/>
		<g>
			<path class="st4" d="M580.1,275.83c-0.86,3.86-3.16,7.4-6.73,9.74c-3.56,2.34-7.73,3.06-11.61,2.32c0.86-3.86,3.17-7.4,6.73-9.74
				C572.05,275.8,576.21,275.09,580.1,275.83z"/>
			<path class="st4" d="M581.01,292.43c-3.06,1.82-6.8,2.51-10.55,1.63c-3.74-0.88-6.78-3.17-8.71-6.16
				c3.06-1.82,6.8-2.51,10.54-1.63C576.04,287.14,579.09,289.43,581.01,292.43z"/>
		</g>
		<g>
			<path class="st4" d="M554.88,222.5c1.34,2.95,1.58,6.4,0.4,9.68c-1.18,3.29-3.54,5.81-6.45,7.24c-1.34-2.95-1.58-6.4-0.4-9.68
				C549.6,226.45,551.97,223.93,554.88,222.5z"/>
			<path class="st4" d="M563.65,232.9c-1.1,2.7-3.21,4.99-6.09,6.26c-2.88,1.27-6,1.27-8.73,0.26c1.1-2.7,3.21-4.99,6.09-6.26
				C557.8,231.9,560.91,231.89,563.65,232.9z"/>
		</g>
		<g>
			<path class="st4" d="M530.54,214.99c-2.59,1.94-4.46,4.85-5.01,8.29c-0.55,3.45,0.31,6.79,2.17,9.45
				c2.59-1.94,4.46-4.85,5.01-8.29C533.26,220.99,532.39,217.65,530.54,214.99z"/>
			<path class="st4" d="M517.84,219.89c-0.33,2.9,0.41,5.92,2.33,8.42c1.92,2.5,4.64,4,7.53,4.43c0.34-2.9-0.41-5.92-2.33-8.42
				C523.45,221.82,520.72,220.32,517.84,219.89z"/>
		</g>
		<g>
			<path class="st4" d="M486.01,290.43c3.24,3.89,7.93,6.57,13.35,7.16c5.43,0.59,10.58-1.04,14.57-4.14
				c-3.24-3.89-7.92-6.57-13.35-7.16C495.16,285.7,490,287.32,486.01,290.43z"/>
			<path class="st4" d="M494.67,309.86c4.55,0.29,9.21-1.12,12.95-4.31c3.74-3.19,5.87-7.57,6.31-12.1
				c-4.55-0.29-9.21,1.12-12.95,4.31C497.24,300.94,495.11,305.32,494.67,309.86z"/>
		</g>
		<g>
			<path class="st4" d="M551.46,366.05c1.62-3.64,1.89-7.89,0.43-11.93c-1.47-4.04-4.41-7.12-7.99-8.87
				c-1.62,3.64-1.9,7.89-0.43,11.93C544.94,361.23,547.87,364.31,551.46,366.05z"/>
			<path class="st4" d="M562.19,353.18c-1.37-3.32-3.99-6.12-7.54-7.66c-3.56-1.54-7.39-1.52-10.75-0.26
				c1.37,3.32,3.99,6.12,7.54,7.66C554.99,354.46,558.83,354.45,562.19,353.18z"/>
		</g>
		<g>
			<path class="st4" d="M497.11,339.52c3.1,1.59,6.79,2.02,10.38,0.93c3.59-1.09,6.42-3.51,8.11-6.55
				c-3.1-1.59-6.79-2.02-10.38-0.93C501.62,334.06,498.79,336.48,497.11,339.52z"/>
			<path class="st4" d="M507.83,349.49c2.96-1.04,5.53-3.19,7.04-6.22c1.51-3.03,1.68-6.38,0.73-9.36
				c-2.96,1.04-5.53,3.19-7.04,6.22C507.05,343.15,506.88,346.5,507.83,349.49z"/>
		</g>
	</g>
	<rect x="63.62" y="516.58" class="st11" width="532.44" height="58.7"/>
	<g>
		<rect x="63.62" y="320.48" class="st10" width="532.44" height="17.77"/>
		<g>
			<rect x="84.22" y="338.25" class="st9" width="12.69" height="161.19"/>
			<path class="st8" d="M84.22,438.04c0.58-4.16,11.99-1.75,12.69,7.14v-17.77H84.22V438.04z"/>
			<path class="st10" d="M90.56,433.28c7.95,0,14.44-6.48,14.44-14.44c0-7.95-6.48-14.44-14.44-14.44
				c-7.95,0-14.44,6.49-14.44,14.44C76.12,426.8,82.61,433.28,90.56,433.28z"/>
			<path class="st12" d="M90.56,418.85c4.44,0,8.06-2.9,8.06-6.45c0-3.55-3.62-6.45-8.06-6.45c-4.44,0-8.06,2.9-8.06,6.45
				C82.51,415.95,86.13,418.85,90.56,418.85z"/>
			<path class="st8" d="M84.22,348.88c0.58-4.17,11.99-1.75,12.69,7.14v-17.77H84.22V348.88z"/>
		</g>
		<g>
			<g>
				<path class="st9" d="M137.39,338.25c4.23,0,8.46,0,12.69,0c0,53.73,0,107.46,0,161.19c-4.23,0-8.46,0-12.69,0
					C137.39,445.71,137.39,391.98,137.39,338.25z"/>
				<path class="st8" d="M137.39,438.04c0.58-4.16,11.99-1.75,12.69,7.14c0-5.92,0-11.85,0-17.77c-4.23,0-8.46,0-12.69,0
					C137.39,430.96,137.39,434.5,137.39,438.04z"/>
				<path class="st10" d="M143.73,404.41c7.97,0,14.44,6.47,14.44,14.44c0,7.97-6.47,14.44-14.44,14.44
					c-7.97,0-14.44-6.46-14.44-14.44C129.3,410.87,135.76,404.41,143.73,404.41z"/>
				<path class="st12" d="M143.73,405.95c4.45,0,8.06,2.89,8.06,6.45c0,3.56-3.61,6.45-8.06,6.45c-4.45,0-8.05-2.89-8.05-6.45
					C135.68,408.84,139.29,405.95,143.73,405.95z"/>
				<path class="st8" d="M137.39,348.88c0.58-4.17,11.99-1.75,12.69,7.14c0-5.92,0-11.84,0-17.77c-4.23,0-8.46,0-12.69,0
					C137.39,341.79,137.39,345.34,137.39,348.88z"/>
			</g>
			<g>
				<ellipse class="st9" cx="196.91" cy="418.85" rx="8.98" ry="113.98"/>
				<path class="st8" d="M190.56,438.04c0.58-4.16,11.99-1.75,12.69,7.14c0-5.92,0-11.85,0-17.77c-4.23,0-8.46,0-12.69,0
					C190.56,430.96,190.56,434.5,190.56,438.04z"/>
				<path class="st10" d="M196.91,404.41c7.97,0,14.44,6.47,14.44,14.44c0,7.97-6.46,14.44-14.44,14.44
					c-7.97,0-14.44-6.46-14.44-14.44C182.47,410.87,188.93,404.41,196.91,404.41z"/>
				<path class="st12" d="M196.91,405.95c4.45,0,8.06,2.89,8.06,6.45c0,3.56-3.61,6.45-8.06,6.45c-4.45,0-8.06-2.89-8.06-6.45
					C188.85,408.84,192.46,405.95,196.91,405.95z"/>
				<path class="st8" d="M190.56,348.88c0.58-4.17,11.99-1.75,12.69,7.14c0-5.92,0-11.84,0-17.77c-4.23,0-8.46,0-12.69,0
					C190.56,341.79,190.56,345.34,190.56,348.88z"/>
			</g>
			<g>
				<path class="st9" d="M243.73,338.25c4.23,0,8.46,0,12.69,0c0,53.73,0,107.46,0,161.19c-4.23,0-8.46,0-12.69,0
					C243.73,445.71,243.73,391.98,243.73,338.25z"/>
				<path class="st8" d="M243.73,438.04c0.58-4.16,11.99-1.75,12.69,7.14c0-5.92,0-11.85,0-17.77c-4.23,0-8.46,0-12.69,0
					C243.73,430.96,243.73,434.5,243.73,438.04z"/>
				<path class="st10" d="M250.08,404.41c7.97,0,14.44,6.47,14.44,14.44c0,7.97-6.46,14.44-14.44,14.44
					c-7.97,0-14.44-6.46-14.44-14.44C235.64,410.87,242.11,404.41,250.08,404.41z"/>
				<path class="st12" d="M250.08,405.95c4.45,0,8.05,2.89,8.05,6.45c0,3.56-3.6,6.45-8.05,6.45c-4.45,0-8.06-2.89-8.06-6.45
					C242.02,408.84,245.63,405.95,250.08,405.95z"/>
				<path class="st8" d="M243.73,348.88c0.58-4.17,11.99-1.75,12.69,7.14c0-5.92,0-11.84,0-17.77c-4.23,0-8.46,0-12.69,0
					C243.73,341.79,243.73,345.34,243.73,348.88z"/>
			</g>
			<g>
				<path class="st9" d="M296.91,338.25c4.23,0,8.46,0,12.69,0c0,53.73,0,107.46,0,161.19c-4.23,0-8.46,0-12.69,0
					C296.91,445.71,296.91,391.98,296.91,338.25z"/>
				<path class="st8" d="M296.91,438.04c0.58-4.16,11.99-1.75,12.69,7.14c0-5.92,0-11.85,0-17.77c-4.23,0-8.46,0-12.69,0
					C296.91,430.96,296.91,434.5,296.91,438.04z"/>
				<path class="st10" d="M303.25,404.41c7.97,0,14.44,6.47,14.44,14.44c0,7.97-6.47,14.44-14.44,14.44
					c-7.97,0-14.44-6.46-14.44-14.44C288.81,410.87,295.28,404.41,303.25,404.41z"/>
				<path class="st12" d="M303.25,405.95c4.45,0,8.06,2.89,8.06,6.45c0,3.56-3.61,6.45-8.06,6.45c-4.45,0-8.06-2.89-8.06-6.45
					C295.2,408.84,298.8,405.95,303.25,405.95z"/>
				<path class="st8" d="M296.91,348.88c0.58-4.17,11.99-1.75,12.69,7.14c0-5.92,0-11.84,0-17.77c-4.23,0-8.46,0-12.69,0
					C296.91,341.79,296.91,345.34,296.91,348.88z"/>
			</g>
			<g>
				<path class="st9" d="M350.08,338.25c4.23,0,8.46,0,12.69,0c0,53.73,0,107.46,0,161.19c-4.23,0-8.46,0-12.69,0
					C350.08,445.71,350.08,391.98,350.08,338.25z"/>
				<path class="st8" d="M350.08,438.04c0.58-4.16,11.99-1.75,12.69,7.14c0-5.92,0-11.85,0-17.77c-4.23,0-8.46,0-12.69,0
					C350.08,430.96,350.08,434.5,350.08,438.04z"/>
				<path class="st10" d="M356.42,404.41c7.97,0,14.44,6.47,14.44,14.44c0,7.97-6.46,14.44-14.44,14.44
					c-7.97,0-14.44-6.46-14.44-14.44C341.99,410.87,348.45,404.41,356.42,404.41z"/>
				<path class="st12" d="M356.42,405.95c4.45,0,8.06,2.89,8.06,6.45c0,3.56-3.61,6.45-8.06,6.45c-4.45,0-8.06-2.89-8.06-6.45
					C348.37,408.84,351.97,405.95,356.42,405.95z"/>
				<path class="st8" d="M350.08,348.88c0.58-4.17,11.99-1.75,12.69,7.14c0-5.92,0-11.84,0-17.77c-4.23,0-8.46,0-12.69,0
					C350.08,341.79,350.08,345.34,350.08,348.88z"/>
			</g>
			<g>
				<path class="st9" d="M403.25,338.25c4.23,0,8.46,0,12.69,0c0,53.73,0,107.46,0,161.19c-4.23,0-8.46,0-12.69,0
					C403.25,445.71,403.25,391.98,403.25,338.25z"/>
				<path class="st8" d="M403.25,438.04c0.58-4.16,11.99-1.75,12.69,7.14c0-5.92,0-11.85,0-17.77c-4.23,0-8.46,0-12.69,0
					C403.25,430.96,403.25,434.5,403.25,438.04z"/>
				<path class="st10" d="M409.6,404.41c7.97,0,14.44,6.47,14.44,14.44c0,7.97-6.46,14.44-14.44,14.44
					c-7.97,0-14.44-6.46-14.44-14.44C395.16,410.87,401.62,404.41,409.6,404.41z"/>
				<path class="st12" d="M409.6,405.95c4.45,0,8.06,2.89,8.06,6.45c0,3.56-3.61,6.45-8.06,6.45c-4.45,0-8.05-2.89-8.05-6.45
					C401.54,408.84,405.15,405.95,409.6,405.95z"/>
				<path class="st8" d="M403.25,348.88c0.58-4.17,11.99-1.75,12.69,7.14c0-5.92,0-11.84,0-17.77c-4.23,0-8.46,0-12.69,0
					C403.25,341.79,403.25,345.34,403.25,348.88z"/>
			</g>
			<g>
				<path class="st9" d="M456.42,338.25c4.23,0,8.46,0,12.69,0c0,53.73,0,107.46,0,161.19c-4.23,0-8.46,0-12.69,0
					C456.42,445.71,456.42,391.98,456.42,338.25z"/>
				<path class="st8" d="M456.42,438.04c0.58-4.16,11.99-1.75,12.69,7.14c0-5.92,0-11.85,0-17.77c-4.23,0-8.46,0-12.69,0
					C456.42,430.96,456.42,434.5,456.42,438.04z"/>
				<path class="st10" d="M462.77,404.41c7.97,0,14.44,6.47,14.44,14.44c0,7.97-6.46,14.44-14.44,14.44
					c-7.98,0-14.44-6.46-14.44-14.44C448.33,410.87,454.79,404.41,462.77,404.41z"/>
				<path class="st12" d="M462.77,405.95c4.45,0,8.05,2.89,8.05,6.45c0,3.56-3.61,6.45-8.05,6.45c-4.45,0-8.06-2.89-8.06-6.45
					C454.71,408.84,458.32,405.95,462.77,405.95z"/>
				<path class="st8" d="M456.42,348.88c0.58-4.17,11.99-1.75,12.69,7.14c0-5.92,0-11.84,0-17.77c-4.23,0-8.46,0-12.69,0
					C456.42,341.79,456.42,345.34,456.42,348.88z"/>
			</g>
			<g>
				<path class="st9" d="M509.59,338.25c4.23,0,8.46,0,12.7,0c0,53.73,0,107.46,0,161.19c-4.23,0-8.46,0-12.7,0
					C509.59,445.71,509.59,391.98,509.59,338.25z"/>
				<path class="st8" d="M509.59,438.04c0.58-4.16,11.99-1.75,12.7,7.14c0-5.92,0-11.85,0-17.77c-4.23,0-8.46,0-12.7,0
					C509.59,430.96,509.59,434.5,509.59,438.04z"/>
				<path class="st10" d="M515.94,404.41c7.97,0,14.44,6.47,14.44,14.44c0,7.97-6.46,14.44-14.44,14.44
					c-7.97,0-14.44-6.46-14.44-14.44C501.5,410.87,507.97,404.41,515.94,404.41z"/>
				<path class="st12" d="M515.94,405.95c4.45,0,8.05,2.89,8.05,6.45c0,3.56-3.61,6.45-8.05,6.45c-4.45,0-8.06-2.89-8.06-6.45
					C507.89,408.84,511.49,405.95,515.94,405.95z"/>
				<path class="st8" d="M509.59,348.88c0.58-4.17,11.99-1.75,12.7,7.14c0-5.92,0-11.84,0-17.77c-4.23,0-8.46,0-12.7,0
					C509.59,341.79,509.59,345.34,509.59,348.88z"/>
			</g>
		</g>
		<g>
			<rect x="562.77" y="338.25" class="st9" width="12.69" height="161.19"/>
			<path class="st8" d="M562.77,438.04c0.58-4.16,11.99-1.75,12.69,7.14v-17.77h-12.69V438.04z"/>
			<path class="st10" d="M569.11,433.28c7.95,0,14.44-6.48,14.44-14.44c0-7.95-6.49-14.44-14.44-14.44
				c-7.95,0-14.44,6.49-14.44,14.44C554.68,426.8,561.16,433.28,569.11,433.28z"/>
			<path class="st12" d="M569.11,418.85c4.44,0,8.06-2.9,8.06-6.45c0-3.55-3.62-6.45-8.06-6.45s-8.06,2.9-8.06,6.45
				C561.06,415.95,564.68,418.85,569.11,418.85z"/>
			<path class="st8" d="M562.77,348.88c0.58-4.17,11.99-1.75,12.69,7.14v-17.77h-12.69V348.88z"/>
		</g>
	</g>
	<g>
		<polygon class="st1" points="651.64,382.89 596.06,320.48 596.06,338.25 651.64,400.66 		"/>
		<g>
			<path class="st1" d="M643.43,391.44c-2.32-2.6-4.63-5.21-6.95-7.81c0,53.73,0,107.46,0,161.19c2.32,2.61,4.64,5.21,6.95,7.81
				C643.43,498.9,643.43,445.17,643.43,391.44z"/>
			<path class="st1" d="M643.43,491.24c-0.32-4.52-6.57-9.12-6.95-0.67c0-5.92,0-11.85,0-17.77c2.32,2.6,4.64,5.21,6.95,7.81
				C643.43,484.15,643.43,487.69,643.43,491.24z"/>
			<path class="st1" d="M639.95,453.69c-4.37-4.9-7.91-2.42-7.91,5.56c0,7.97,3.54,18.41,7.91,23.32c4.37,4.91,7.91,2.42,7.91-5.55
				C647.86,469.04,644.32,458.6,639.95,453.69z"/>
			<path class="st1" d="M639.95,455.24c-2.44-2.74-4.41-2.07-4.41,1.49c0,3.56,1.97,8.66,4.41,11.4c2.44,2.74,4.42,2.07,4.42-1.49
				C644.37,463.08,642.39,457.97,639.95,455.24z"/>
			<path class="st1" d="M643.43,402.07c-0.32-4.52-6.57-9.12-6.95-0.67c0-5.92,0-11.84,0-17.77c2.32,2.6,4.64,5.21,6.95,7.81
				C643.43,394.99,643.43,398.53,643.43,402.07z"/>
		</g>
		<g>
			<polygon class="st1" points="614.3,358.73 607.35,350.92 607.35,512.11 614.3,519.92 			"/>
			<path class="st1" d="M614.3,458.53c-0.32-4.52-6.57-9.12-6.95-0.67v-17.77l6.95,7.81V458.53z"/>
			<path class="st1" d="M610.82,420.99c-4.37-4.91-7.91-2.42-7.91,5.55c0,7.97,3.54,18.42,7.91,23.32c4.37,4.91,7.91,2.42,7.91-5.56
				C618.73,436.33,615.19,425.89,610.82,420.99z"/>
			<path class="st1" d="M610.82,422.53c-2.44-2.74-4.41-2.07-4.41,1.49s1.98,8.67,4.41,11.4c2.44,2.74,4.42,2.07,4.42-1.49
				C615.24,430.37,613.26,425.26,610.82,422.53z"/>
			<path class="st1" d="M614.3,369.36c-0.32-4.52-6.57-9.12-6.95-0.67v-17.77l6.95,7.81V369.36z"/>
		</g>
	</g>
	<rect x="326.82" y="129.68" class="st10" width="6.05" height="147.43"/>
	<path class="st13" d="M332.86,197.93h-6.05v-48.87h6.05V197.93L332.86,197.93z M332.86,232.19v44.91h-6.05v-44.91H332.86z"/>
	<rect x="526.53" y="33.31" class="st14" width="44.11" height="13.96"/>
	<rect x="576.82" y="33.31" class="st14" width="44.1" height="13.96"/>
	<rect x="550.96" y="52.83" class="st14" width="44.11" height="13.96"/>
	<rect x="44.21" y="169.91" class="st14" width="44.11" height="13.96"/>
	<rect x="94.5" y="169.91" class="st14" width="44.1" height="13.96"/>
	<rect x="68.64" y="189.43" class="st14" width="44.1" height="13.96"/>
	<rect x="525.81" y="169.91" class="st14" width="44.11" height="13.96"/>
	<rect x="72.45" y="52.83" class="st14" width="44.11" height="13.96"/>
	<rect x="550.25" y="189.43" class="st14" width="44.11" height="13.96"/>
	<rect x="326.82" y="30.54" class="st14" width="44.1" height="13.96"/>
	<rect x="351.25" y="50.05" class="st14" width="44.11" height="13.96"/>
	<rect x="406.76" y="583.84" class="st15" width="44.1" height="13.96"/>
	<rect x="129.51" y="583.84" class="st15" width="44.1" height="13.96"/>
	<rect x="154.9" y="603.04" class="st15" width="44.1" height="13.96"/>
	<rect x="540.72" y="603.04" class="st15" width="44.1" height="13.96"/>
	<rect x="314.88" y="263.84" class="st7" width="6.05" height="34.11"/>
	<rect x="338.75" y="263.84" class="st7" width="6.05" height="34.11"/>
</g>
</svg>
