<?xml version="1.0" encoding="utf-8"?>
<!-- Generator: Adobe Illustrator 26.0.2, SVG Export Plug-In . SVG Version: 6.00 Build 0)  -->
<svg version="1.1" id="Layer_1" xmlns="http://www.w3.org/2000/svg" xmlns:xlink="http://www.w3.org/1999/xlink" x="0px" y="0px"
	 viewBox="0 0 546.84 138.52" style="enable-background:new 0 0 546.84 138.52;" xml:space="preserve">
<style type="text/css">
	.st0{fill:#1E4988;}
	.st1{fill:#F69916;}
	.st2{fill:#FFFFFF;}
</style>
<polygon class="st0" points="190.08,20.76 190.08,13.1 172.89,13.1 166.79,13.1 163.46,13.1 163.46,64.13 166.79,64.13 
	172.89,64.13 190.08,64.13 190.08,56.47 172.89,56.47 172.89,43 190.08,43 190.08,35.34 172.89,35.34 172.89,20.76 "/>
<polygon class="st0" points="314.88,20.76 314.88,13.1 297.69,13.1 291.59,13.1 288.26,13.1 288.26,64.13 291.59,64.13 
	297.69,64.13 314.88,64.13 314.88,56.47 297.69,56.47 297.69,43 314.88,43 314.88,35.34 297.69,35.34 297.69,20.76 "/>
<polygon class="st0" points="542.29,20.76 542.29,13.1 525.1,13.1 519,13.1 515.67,13.1 515.67,64.13 519,64.13 525.1,64.13 
	542.29,64.13 542.29,56.47 525.1,56.47 525.1,43 542.29,43 542.29,35.34 525.1,35.34 525.1,20.76 "/>
<polygon class="st1" points="452.23,85.04 452.23,77.38 435.04,77.38 428.93,77.38 425.61,77.38 425.61,128.41 428.93,128.41 
	435.04,128.41 452.23,128.41 452.23,120.74 435.04,120.74 435.04,107.28 452.23,107.28 452.23,99.62 435.04,99.62 435.04,85.04 "/>
<polygon class="st0" points="233.9,12.55 233.9,47.54 213.33,12.55 203.9,12.55 203.9,63.57 213.33,63.57 213.33,28.58 233.9,63.57 
	243.33,63.57 243.33,12.55 "/>
<rect x="370.34" y="76.88" class="st1" width="9.43" height="51.03"/>
<rect x="455.17" y="13.25" class="st0" width="9.43" height="51.03"/>
<path class="st1" d="M201.52,127.62h10.64l-21.18-51.03h-0.17h-8.39h-0.17l-21.18,51.03h10.64l5.44-14.53h18.93L201.52,127.62z
	 M180.01,105.43l6.6-17.63l6.6,17.63H180.01z"/>
<polygon class="st1" points="347.71,76.18 347.71,96.95 329.57,96.95 329.57,76.18 320.14,76.18 320.14,127.2 329.57,127.2 
	329.57,104.61 347.71,104.61 347.71,127.2 357.14,127.2 357.14,76.18 "/>
<polygon class="st0" points="281.03,13.61 271.27,13.61 261.84,13.61 252.08,13.61 252.08,21.27 261.84,21.27 261.84,64.64 
	271.27,64.64 271.27,21.27 281.03,21.27 "/>
<polygon class="st1" points="417.47,77.24 407.71,77.24 398.28,77.24 388.52,77.24 388.52,84.9 398.28,84.9 398.28,128.26 
	407.71,128.26 407.71,84.9 417.47,84.9 "/>
<polygon class="st1" points="546.84,76.53 537.08,76.53 527.65,76.53 517.89,76.53 517.89,84.19 527.65,84.19 527.65,127.56 
	537.08,127.56 537.08,84.19 546.84,84.19 "/>
<path class="st1" d="M300.34,112.26c-3.08,4.28-8.09,7.07-13.76,7.07c-9.37,0-16.97-7.6-16.97-16.97s7.6-16.97,16.97-16.97
	c5.02,0,9.51,2.19,12.62,5.66h10.94c-4.22-8.78-13.17-14.85-23.56-14.85c-14.45,0-26.16,11.71-26.16,26.16
	c0,14.45,11.71,26.16,26.16,26.16c10.94,0,20.3-6.72,24.21-16.26H300.34z"/>
<path class="st1" d="M501.82,112.26c-3.08,4.28-8.09,7.07-13.76,7.07c-9.37,0-16.97-7.6-16.97-16.97s7.6-16.97,16.97-16.97
	c5.02,0,9.51,2.19,12.62,5.66h10.94c-4.22-8.78-13.17-14.85-23.56-14.85c-14.45,0-26.16,11.71-26.16,26.16
	c0,14.45,11.71,26.16,26.16,26.16c10.94,0,20.3-6.72,24.2-16.26H501.82z"/>
<path class="st0" d="M506.01,46.09c0,0-0.09-0.91-0.5-2.25c-0.95-2.75-2.61-5.18-4.76-7.07c0.05-0.05,0.09-0.11,0.14-0.16
	c-1.69-1.47-3.93-2.74-6.91-3.44c-1.08-0.25-3.25-0.6-4.92-0.99c-0.58-0.08-1.13-0.24-1.64-0.48c-0.21-0.09-0.38-0.17-0.48-0.26
	c0,0,0,0,0,0c-1.66-0.99-2.79-2.79-2.79-4.87c0-1.5,0.59-2.85,1.54-3.87c0.01-0.01,0.01-0.02,0.02-0.03l0,0
	c1.04-1.1,2.5-1.79,4.12-1.79c2.79,0,5.09,2.01,5.58,4.66l0.1,0.03H504h0.65c-0.58-7.68-6.99-13.73-14.81-13.73
	c-8.21,0-14.87,6.66-14.87,14.87c0,3.89,1.51,7.42,3.95,10.07c-0.01,0.01-0.02,0.02-0.03,0.03c1.92,2,3.78,2.89,5.28,3.33
	c1.69,0.5,3.68,0.69,4.79,0.93c2.9,0.61,4.58,1.97,5.54,3.21c1.25,1.23,2.02,2.94,2.02,4.83c0,3.76-3.04,6.8-6.8,6.8
	c-3.57,0-6.46-2.75-6.75-6.25h-9.7c0.23,8.96,7.54,16.17,16.57,16.17c9.16,0,16.58-7.43,16.58-16.59c0-1.17-0.13-2.3-0.36-3.4
	L506.01,46.09z"/>
<path class="st0" d="M387.94,12.23h-8.53h-6.06h-3.37v51.03h9.43V45.1h8.53c9.22,0,16.7-7.36,16.7-16.44
	C404.64,19.59,397.16,12.23,387.94,12.23z M387.94,36.09h-8.53V21.24h8.53c3.95,0,7.16,3.32,7.16,7.42
	C395.09,32.76,391.89,36.09,387.94,36.09z"/>
<path class="st0" d="M445.46,28.13c0-9.08-7.48-16.44-16.7-16.44h-8.53h-6.06h-3.37v51.03h9.43V44.57h0.24l13.88,18.16h10.62
	l-14-18.32C439.15,43.34,445.46,36.47,445.46,28.13z M420.24,20.71h8.53c3.95,0,7.16,3.32,7.16,7.42c0,4.1-3.21,7.42-7.16,7.42
	h-8.53V20.71z"/>
<path class="st0" d="M361.34,28.13c0-9.08-7.48-16.44-16.7-16.44h-8.53h-6.06h-3.37v51.03h9.43V44.57h0.24l13.88,18.16h10.62
	l-14-18.32C355.02,43.34,361.34,36.47,361.34,28.13z M336.11,20.71h8.53c3.95,0,7.16,3.32,7.16,7.42c0,4.1-3.21,7.42-7.16,7.42
	h-8.53V20.71z"/>
<path class="st1" d="M253.88,93.17c0-9.08-7.48-16.44-16.7-16.44h-8.53h-6.06h-3.37v51.03h9.43v-18.16h0.24l13.88,18.16h10.62
	l-14-18.32C247.57,108.38,253.88,101.51,253.88,93.17z M228.65,85.75h8.53c3.95,0,7.16,3.32,7.16,7.42c0,4.1-3.21,7.42-7.16,7.42
	h-8.53V85.75z"/>
<path class="st0" d="M11.89,27.75c0,0-15.92,24.33-10.92,46.62c5,22.29,15.92,32.52,25.47,35.47v16.83c0,0,14.78,12.51,40.93,11.82
	c26.15-0.68,40.02-19.33,41.39-26.38l16.6,0.91c0,0,33.2-56.17-13.42-83.46l0.23-16.14c0,0-58.9-33.43-83,14.78L11.89,27.75z"/>
<path class="st2" d="M102.94,34.52l-0.38-13.4c0,0-50.03-25.64-68.31,15.19L19.9,36.55c0,0-12.34,20.74-7.4,39.05
	c4.94,18.31,14.35,26.4,22.38,28.52l0.6,13.96c0,0,12.7,9.85,34.37,8.36c21.66-1.49,32.51-17.45,33.39-23.35l13.8,0.17
	C117.02,103.25,142.57,55.5,102.94,34.52z M68.97,23.66c21.6,2.5,24.56,16.83,24.56,16.83C76.7,39.58,66.24,61.18,66.24,61.18
	C37.81,52.54,47.36,21.16,68.97,23.66z M22.56,69.44c2.5-21.6,16.83-24.56,16.83-24.56c-0.91,16.83,20.7,27.29,20.7,27.29
	C51.44,100.6,20.06,91.05,22.56,69.44z M68.12,116.53c-21.6-2.5-24.56-16.83-24.56-16.83C60.39,100.61,70.85,79,70.85,79
	C99.28,87.65,89.73,119.03,68.12,116.53z M115.2,70.51c-2.5,21.6-16.83,24.56-16.83,24.56c0.91-16.83-20.69-27.29-20.69-27.29
	C86.33,39.36,117.71,48.91,115.2,70.51z"/>
</svg>
