<?xml version="1.0" encoding="utf-8"?>
<!-- Generator: Adobe Illustrator 26.0.2, SVG Export Plug-In . SVG Version: 6.00 Build 0)  -->
<svg version="1.1"
	 id="svg2" xmlns:cc="http://creativecommons.org/ns#" xmlns:dc="http://purl.org/dc/elements/1.1/" xmlns:inkscape="http://www.inkscape.org/namespaces/inkscape" xmlns:ns1="http://sozi.baierouge.fr" xmlns:rdf="http://www.w3.org/1999/02/22-rdf-syntax-ns#" xmlns:sodipodi="http://sodipodi.sourceforge.net/DTD/sodipodi-0.dtd"
	 xmlns="http://www.w3.org/2000/svg" xmlns:xlink="http://www.w3.org/1999/xlink" x="0px" y="0px" viewBox="0 0 338.9 301.7"
	 style="enable-background:new 0 0 338.9 301.7;" xml:space="preserve">
<style type="text/css">
	.st0{fill:#B2B2B2;stroke:#4D4D4D;stroke-width:1;stroke-miterlimit:3.9999;}
	.st1{fill:#CED7E1;}
	.st2{fill:#5480AA;}
	.st3{fill:#B2B2B2;stroke:#4D4D4D;}
</style>
<sodipodi:namedview  bordercolor="#666666" borderopacity="1.0" fit-margin-bottom="0" fit-margin-left="0" fit-margin-right="0" fit-margin-top="0" id="base" inkscape:current-layer="layer1" inkscape:cx="275.52205" inkscape:cy="39.088909" inkscape:document-units="px" inkscape:pageopacity="0.0" inkscape:pageshadow="2" inkscape:window-height="577" inkscape:window-maximized="0" inkscape:window-width="757" inkscape:window-x="969" inkscape:window-y="58" inkscape:zoom="0.35" pagecolor="#ffffff" showgrid="false">
	</sodipodi:namedview>
<g id="layer1" transform="translate(-99.478 -269.75)" inkscape:groupmode="layer" inkscape:label="Calque 1">
	<g id="g6259" transform="translate(99.478 269.75)">
		<g id="g6215">
			
				<rect id="rect6217" x="303.8" y="20.6" transform="matrix(0.5916 -0.8062 0.8062 0.5916 101.4167 271.1425)" class="st0" width="29" height="29.7"/>
			<path id="path6219" inkscape:connector-curvature="0" class="st1" d="M278.4,65.4c-1,1.3-0.7,3.2,0.6,4.2l18,13.2
				c1.3,1,3.2,0.7,4.2-0.6c1-1.3,0.7-3.2-0.6-4.2l-18-13.2C281.2,63.8,279.3,64.1,278.4,65.4L278.4,65.4z"/>
			<path id="path6221" inkscape:connector-curvature="0" class="st1" d="M284.7,56.8c-1,1.3-0.7,3.2,0.6,4.2l18,13.2
				c1.3,1,3.2,0.7,4.2-0.6c1-1.3,0.7-3.2-0.6-4.2l-18-13.2C287.5,55.2,285.6,55.5,284.7,56.8L284.7,56.8z"/>
			<path id="path6223" inkscape:connector-curvature="0" class="st1" d="M291.2,48c-1,1.3-0.7,3.2,0.6,4.2l18,13.2
				c1.3,1,3.2,0.7,4.2-0.6c1-1.3,0.7-3.2-0.6-4.2l-18-13.2C294,46.4,292.1,46.6,291.2,48L291.2,48z"/>
			<path id="path6225" inkscape:connector-curvature="0" class="st2" d="M258.6,115.7c-2.6-1.9-4.5-4.3-5.9-6.9l-0.6,0.9
				c-29.5,45.5-34.6,84.3-31.7,111.8c2.9,27.4,13.3,43.2,14,44.2l5.6,8.3l16.6-11.2l-5.6-8.3c-0.5-0.8-9-14.2-10.9-37.3
				c-1.9-23,2.5-55.8,28.8-96.6l0.6-1C265.7,119.4,261.9,118.1,258.6,115.7z"/>
			<path id="path6227" inkscape:connector-curvature="0" class="st2" d="M322.3,56.3l-0.5-0.4l-23.9-17.6l-1.9-1.4
				c-1.6-1.2-4-0.6-5.4,1.3l-34.2,46.5c-4.7,6.4-5,14.5-1.6,21.1c1.4,2.6,3.3,5,5.9,6.9c3.3,2.4,7.2,3.7,11,3.9
				c6.4,0.3,12.9-2.6,17-8.2l34.2-46.5C324,60,323.9,57.5,322.3,56.3z M301.2,82.2c-1,1.3-2.9,1.6-4.2,0.6l-18-13.2
				c-1.3-1-1.6-2.9-0.6-4.2c1-1.3,2.9-1.6,4.2-0.6l18,13.2C301.9,79,302.2,80.9,301.2,82.2L301.2,82.2z M307.5,73.6
				c-1,1.3-2.9,1.6-4.2,0.6l-18-13.2c-1.3-1-1.6-2.9-0.6-4.2c1-1.3,2.9-1.6,4.2-0.6l18,13.2C308.2,70.4,308.5,72.3,307.5,73.6
				L307.5,73.6z M314,64.7c-1,1.3-2.9,1.6-4.2,0.6l-18-13.2c-1.3-1-1.6-2.9-0.6-4.2c1-1.3,2.9-1.6,4.2-0.6l18,13.2
				C314.7,61.5,315,63.4,314,64.7L314,64.7z"/>
		</g>
		<g id="g6229">
			<path id="path6231" inkscape:connector-curvature="0" class="st2" d="M196,282.5c-9.2-42.6-30.9-74.7-50.3-96.2
				c-19.3-21.5-35.6-31.9-35.6-31.9c-0.2,1.7-0.7,3.3-1.7,4.9c-0.9,1.5-2.2,2.7-3.5,3.7c0,0,65,46,81.4,121.7l1.1,4.9l9.8-2.1
				L196,282.5L196,282.5z M45.5,95.6l29.7,18.2c1.1,0.7,2.5,0.3,3.2-0.8l1.5-2.4l15.5,9.6l-0.3,0.5c-0.3,0.4-0.1,1,0.3,1.2
				l29.6,18.2c0.4,0.3,1,0.1,1.2-0.3l3.6-5.8c0.3-0.4,0.1-1-0.3-1.2L100,114.6c-0.4-0.3-1-0.1-1.2,0.3l-0.1,0.2L83,105.6l1.5-2.4
				c0.7-1.1,0.3-2.5-0.8-3.2L54.1,81.7c-1.1-0.7-2.5-0.3-3.2,0.8l-6.1,9.9C44.1,93.5,44.4,94.9,45.5,95.6L45.5,95.6z M98.8,182.9
				l-29.6-18.2c-0.4-0.3-1-0.1-1.2,0.3l-0.1,0.2l-15.5-9.6l1.5-2.4c0.7-1.1,0.3-2.5-0.8-3.2l-29.7-18.2c-1.1-0.7-2.5-0.3-3.2,0.8
				l-6.1,9.9c-0.7,1.1-0.3,2.5,0.8,3.2l29.7,18.3c1.1,0.7,2.5,0.3,3.2-0.8l1.5-2.4l15.5,9.6l-0.3,0.5c-0.3,0.4-0.1,1,0.3,1.2
				l29.6,18.2c0.4,0.3,1,0.1,1.2-0.3l3.6-5.8C99.4,183.7,99.2,183.1,98.8,182.9L98.8,182.9z M23.8,130.9l39.9,24.5
				c1.1,0.7,2.5,0.3,3.2-0.8l18.8-30.5c0.7-1.1,0.3-2.5-0.8-3.2L45,96.4c-1.1-0.7-2.5-0.3-3.2,0.8L23,127.7
				C22.4,128.8,22.7,130.3,23.8,130.9L23.8,130.9z M64,114.3c1.4,0.9,1.9,2.7,1,4.1l-12.4,20.2c-0.9,1.4-2.7,1.9-4.1,1
				c-1.4-0.9-1.9-2.7-1-4.1l12.4-20.2C60.8,113.9,62.6,113.5,64,114.3L64,114.3z M55.6,109.1c1.4,0.9,1.9,2.7,1,4.1l-12.4,20.2
				c-0.9,1.4-2.7,1.9-4.1,1c-1.4-0.9-1.9-2.7-1-4.1l12.4-20.2C52.3,108.7,54.1,108.3,55.6,109.1z M30.5,125.1l12.4-20.2
				c0.9-1.4,2.7-1.9,4.1-1s1.9,2.7,1,4.1l-12.4,20.2c-0.9,1.4-2.7,1.9-4.1,1C30.1,128.3,29.7,126.5,30.5,125.1z M108.1,153.1
				c0.5-4.5-1.5-9.1-5.6-11.6l-18.7-11.5l-12.6,20.4l18.7,11.5c4.1,2.5,9.2,2.3,13-0.3c1.4-0.9,2.6-2.2,3.5-3.7
				C107.3,156.4,107.9,154.8,108.1,153.1z"/>
			<path id="path6233" inkscape:connector-curvature="0" class="st1" d="M35.7,128.2L48.1,108c0.9-1.4,0.4-3.3-1-4.1
				c-1.4-0.9-3.3-0.4-4.1,1l-12.4,20.2c-0.9,1.4-0.4,3.3,1,4.1C32.9,130.1,34.8,129.6,35.7,128.2z M51.4,110.1L39,130.3
				c-0.9,1.4-0.4,3.3,1,4.1c1.4,0.9,3.3,0.4,4.1-1l12.4-20.2c0.9-1.4,0.4-3.3-1-4.1C54.1,108.3,52.3,108.7,51.4,110.1z M59.9,115.3
				l-12.4,20.2c-0.9,1.4-0.4,3.3,1,4.1c1.4,0.9,3.3,0.4,4.1-1L65,118.5c0.9-1.4,0.4-3.3-1-4.1C62.6,113.5,60.8,113.9,59.9,115.3z"/>
			<path id="path6235" inkscape:connector-curvature="0" class="st3" d="M24,125.3l16.9-27.5L31.6,92l-16.9,27.5L24,125.3z
				 M31.4,80.2l15.1,9.3l2.4-4l-15.1-9.3C33.9,76.2,31.4,80.2,31.4,80.2z M15.8,139.5l2.4-4l-15.1-9.3l-2.4,4L15.8,139.5z"/>
		</g>
	</g>
</g>
</svg>
