<?xml version="1.0" encoding="utf-8"?>
<!-- Generator: Adobe Illustrator 16.0.0, SVG Export Plug-In . SVG Version: 6.00 Build 0)  -->
<!DOCTYPE svg PUBLIC "-//W3C//DTD SVG 1.1//EN" "http://www.w3.org/Graphics/SVG/1.1/DTD/svg11.dtd">
<svg version="1.1" id="Layer_1" xmlns="http://www.w3.org/2000/svg" xmlns:xlink="http://www.w3.org/1999/xlink" x="0px" y="0px"
	   viewBox="0 0 270 200" enable-background="new 0 0 270 200" xml:space="preserve">
<g>
	<defs>
		<rect id="SVGID_1_" x="-0.12" y="-0.14" width="270.24" height="200.281"/>
	</defs>
	<clipPath id="SVGID_2_">
		<use xlink:href="#SVGID_1_"  overflow="visible"/>
	</clipPath>
	<path clip-path="url(#SVGID_2_)" fill="#41CD52" d="M38.28,1.9h230.28v159.12l-36.96,36.961H1.32V38.38
		C13.44,26.26,25.8,14.14,38.04,1.9H38.28z"/>
	<path clip-path="url(#SVGID_2_)" fill="#FFFFFF" d="M72.12,43.18c9.36-5.88,19.68-7.32,30.12-7.2c9.84,0.12,20.04,1.92,28.2,7.68
		c6,4.2,9.72,10.56,12.359,17.28c4.08,10.8,5.28,22.56,5.4,34.08c0.12,11.64-0.479,23.64-4.32,34.679
		c-2.52,7.441-7.56,14.16-14.04,18.84c4.681,7.682,9.48,15.121,14.04,22.682c-5.76,2.76-11.64,5.398-17.52,8.039
		c-5.04-8.16-9.96-16.439-15-24.6c-6.721,1.08-13.681,0.959-20.521,0.24c-8.16-0.961-16.56-3.48-22.8-9
		c-4.8-4.201-7.92-10.08-9.96-15.961c-3.36-10.08-4.32-20.879-4.44-31.439c-0.119-11.4,0.601-23.04,4.08-33.96
		c2.641-8.28,7.08-16.56,14.521-21.36H72.12z"/>
	<path clip-path="url(#SVGID_2_)" fill="#FFFFFF" d="M171.721,42.82c6.119,0,12.239,0,18.359,0c0,8.04,0,16.2,0,24.24
		c7.92,0,15.72,0,23.521,0c-0.12,5.28-0.24,10.56-0.48,15.84c-7.8,0-15.6,0-23.399,0c0,13.32-0.12,26.639,0,39.84
		c0.119,3.6,0,7.439,1.68,10.799c1.08,2.641,4.32,3.24,6.84,3.361c4.8,0,9.72-0.24,14.521-0.361
		c0.239,4.801,0.479,9.602,0.84,14.521c-9.601,1.559-19.681,3.6-29.28,0.479c-3.96-1.199-7.68-3.84-9.36-7.799
		c-2.88-6.721-3.12-14.281-3.239-21.48c0-13.199,0-26.28,0-39.36c-4.32,0-8.641,0-12.841,0c0-5.28,0-10.56,0-15.84
		c4.2,0,8.521,0,12.841,0C171.721,59.02,171.721,50.86,171.721,42.82z"/>
	<path clip-path="url(#SVGID_2_)" fill="#41CD52" d="M94.68,52.66c6-0.84,12.24-0.6,17.88,1.68c4.561,1.8,8.4,5.28,10.44,9.84
		c3.12,6.72,4.32,14.28,4.92,21.6c0.72,9.84,0.601,19.8-0.72,29.64c-0.96,5.76-2.28,12-6.24,16.561
		c-4.08,4.559-10.2,6.6-16.08,6.959c-6.24,0.48-12.84,0-18.479-2.879c-3.24-1.801-6.12-4.561-7.681-7.92
		c-2.04-3.961-3.12-8.4-3.84-12.84C72.6,101.379,72,86.86,75.12,72.94c1.32-5.16,3.24-10.56,7.08-14.52
		c3.24-3.36,7.92-5.16,12.6-5.76H94.68z"/>
</g>
</svg>
