<?xml version="1.0" encoding="utf-8"?>
<!-- Generator: Adobe Illustrator 26.0.2, SVG Export Plug-In . SVG Version: 6.00 Build 0)  -->
<svg version="1.1" id="publicdomainvectors.org" xmlns="http://www.w3.org/2000/svg" xmlns:xlink="http://www.w3.org/1999/xlink"
	 x="0px" y="0px" viewBox="0 0 438.65 548.03" style="enable-background:new 0 0 438.65 548.03;" xml:space="preserve">
<style type="text/css">
	.st0{display:none;fill-rule:evenodd;clip-rule:evenodd;fill:#2DA3CA;}
	.st1{display:none;fill-rule:evenodd;clip-rule:evenodd;fill:#FFFFFF;}
	.st2{fill-rule:evenodd;clip-rule:evenodd;fill:#E3ECF8;}
	.st3{fill-rule:evenodd;clip-rule:evenodd;fill:#757790;}
	.st4{fill-rule:evenodd;clip-rule:evenodd;fill:#CED7E1;}
	.st5{fill-rule:evenodd;clip-rule:evenodd;fill:#636479;}
	.st6{fill-rule:evenodd;clip-rule:evenodd;fill:#2D75B2;}
	.st7{fill-rule:evenodd;clip-rule:evenodd;fill:#73ABDD;}
	.st8{fill-rule:evenodd;clip-rule:evenodd;fill:#3E4152;}
	.st9{opacity:0.32;fill-rule:evenodd;clip-rule:evenodd;fill:#1B4279;}
</style>
<g>
	<rect x="-110.53" y="-111.97" class="st0" width="659.7" height="659.7"/>
	<path class="st1" d="M417.09,126.68c3.11,0,6.02,0.85,8.52,2.32c4.25-5.32,10.79-8.74,18.14-8.74c7.68,0,14.49,3.73,18.71,9.48
		c1.89-0.86,4-1.34,6.22-1.34c6.97,0,12.83,4.74,14.55,11.17l20.74,3.88l-20.74,3.88c-1.71,6.43-7.58,11.17-14.55,11.17
		c-2.22,0-4.32-0.48-6.22-1.34c-4.22,5.75-11.03,9.48-18.71,9.48c-7.34,0-13.89-3.41-18.14-8.74c-2.5,1.47-5.41,2.32-8.52,2.32
		c-7.93,0-14.58-5.51-16.33-12.91l-20.69-3.87l20.69-3.87C402.51,132.19,409.15,126.68,417.09,126.68z"/>
	<path class="st1" d="M-57.65,118.21c2.24,0,4.34,0.58,6.16,1.6c3.4-4.68,8.93-7.73,15.16-7.73c5.76,0,10.91,2.6,14.34,6.69
		c1-0.26,2.06-0.4,3.14-0.4c3.94,0,7.45,1.83,9.73,4.69c2.6-4.19,7.24-6.98,12.53-6.98c7.4,0,13.52,5.45,14.57,12.55l14.08,2.18
		L17.99,133c-1.05,7.1-7.18,12.55-14.57,12.55c-5.29,0-9.94-2.79-12.53-6.98c-2.28,2.86-5.79,4.69-9.73,4.69
		c-1.08,0-2.14-0.14-3.14-0.4c-3.44,4.09-8.59,6.69-14.34,6.69c-6.23,0-11.75-3.04-15.16-7.73c-1.82,1.02-3.92,1.61-6.16,1.61
		c-6.22,0-11.38-4.5-12.42-10.42l-14.11-2.19l14.11-2.19C-69.03,122.71-63.86,118.21-57.65,118.21z"/>
	<g>
		<rect x="64.06" class="st2" width="322.21" height="66.83"/>
		<rect x="265.34" class="st3" width="120.93" height="66.83"/>
		<rect y="46.91" class="st4" width="290.13" height="500.82"/>
		<rect x="290.13" y="46.91" class="st5" width="148.52" height="500.82"/>
		<rect x="33.59" y="87.12" class="st6" width="50.92" height="460.62"/>
		<rect x="45.92" y="126.9" class="st7" width="38.59" height="7.56"/>
		<path class="st7" d="M45.92,174.03c12.86,0,25.72,0,38.59,0c0,2.52,0,5.04,0,7.56c-12.86,0-25.72,0-38.59,0
			C45.92,179.07,45.92,176.55,45.92,174.03z"/>
		<path class="st7" d="M45.92,221.17c12.86,0,25.72,0,38.59,0c0,2.52,0,5.04,0,7.56c-12.86,0-25.72,0-38.59,0
			C45.92,226.21,45.92,223.69,45.92,221.17z"/>
		<path class="st7" d="M45.92,268.31c12.86,0,25.72,0,38.59,0c0,2.52,0,5.04,0,7.56c-12.86,0-25.72,0-38.59,0
			C45.92,273.35,45.92,270.83,45.92,268.31z"/>
		<path class="st7" d="M45.92,315.45c12.86,0,25.72,0,38.59,0c0,2.52,0,5.04,0,7.56c-12.86,0-25.72,0-38.59,0
			C45.92,320.49,45.92,317.97,45.92,315.45z"/>
		<path class="st7" d="M45.92,362.29c12.86,0,25.72,0,38.59,0c0,2.52,0,5.04,0,7.56c-12.86,0-25.72,0-38.59,0
			C45.92,367.33,45.92,364.81,45.92,362.29z"/>
		<path class="st7" d="M45.92,409.43c12.86,0,25.72,0,38.59,0c0,2.52,0,5.04,0,7.56c-12.86,0-25.72,0-38.59,0
			C45.92,414.46,45.92,411.94,45.92,409.43z"/>
		<path class="st7" d="M45.92,456.56c12.86,0,25.72,0,38.59,0c0,2.52,0,5.04,0,7.56c-12.86,0-25.72,0-38.59,0
			C45.92,461.6,45.92,459.08,45.92,456.56z"/>
		<rect x="45.92" y="503.7" class="st7" width="38.59" height="7.56"/>
		<path class="st6" d="M119.61,87.12c16.97,0,33.94,0,50.92,0c0,153.54,0,307.08,0,460.62c-16.97,0-33.95,0-50.92,0
			C119.61,394.19,119.61,240.66,119.61,87.12z"/>
		<path class="st7" d="M131.94,126.9c12.86,0,25.72,0,38.58,0c0,2.52,0,5.04,0,7.56c-12.86,0-25.72,0-38.58,0
			C131.94,131.93,131.94,129.42,131.94,126.9z"/>
		<path class="st7" d="M131.94,174.03c12.86,0,25.72,0,38.58,0c0,2.52,0,5.04,0,7.56c-12.86,0-25.72,0-38.58,0
			C131.94,179.07,131.94,176.55,131.94,174.03z"/>
		<path class="st7" d="M131.94,221.17c12.86,0,25.72,0,38.58,0c0,2.52,0,5.04,0,7.56c-12.86,0-25.72,0-38.58,0
			C131.94,226.21,131.94,223.69,131.94,221.17z"/>
		<path class="st7" d="M131.94,268.31c12.86,0,25.72,0,38.58,0c0,2.52,0,5.04,0,7.56c-12.86,0-25.72,0-38.58,0
			C131.94,273.35,131.94,270.83,131.94,268.31z"/>
		<path class="st7" d="M131.94,315.45c12.86,0,25.72,0,38.58,0c0,2.52,0,5.04,0,7.56c-12.86,0-25.72,0-38.58,0
			C131.94,320.49,131.94,317.97,131.94,315.45z"/>
		<path class="st7" d="M131.94,362.58c12.86,0,25.72,0,38.58,0c0,2.52,0,5.04,0,7.56c-12.86,0-25.72,0-38.58,0
			C131.94,367.62,131.94,365.1,131.94,362.58z"/>
		<path class="st7" d="M131.94,409.43c12.86,0,25.72,0,38.58,0c0,2.52,0,5.04,0,7.56c-12.86,0-25.72,0-38.58,0
			C131.94,414.46,131.94,411.94,131.94,409.43z"/>
		<path class="st7" d="M131.94,456.56c12.86,0,25.72,0,38.58,0c0,2.52,0,5.04,0,7.56c-12.86,0-25.72,0-38.58,0
			C131.94,461.6,131.94,459.08,131.94,456.56z"/>
		<path class="st7" d="M131.94,503.7c12.86,0,25.72,0,38.58,0c0,2.52,0,5.04,0,7.56c-12.86,0-25.72,0-38.58,0
			C131.94,508.74,131.94,506.22,131.94,503.7z"/>
		<rect x="205.63" y="87.12" class="st6" width="50.92" height="460.62"/>
		<rect x="217.96" y="126.9" class="st7" width="38.58" height="7.56"/>
		<path class="st7" d="M217.96,174.03c12.86,0,25.72,0,38.58,0c0,2.52,0,5.04,0,7.56c-12.86,0-25.72,0-38.58,0
			C217.96,179.07,217.96,176.55,217.96,174.03z"/>
		<path class="st7" d="M217.96,221.17c12.86,0,25.72,0,38.58,0c0,2.52,0,5.04,0,7.56c-12.86,0-25.72,0-38.58,0
			C217.96,226.21,217.96,223.69,217.96,221.17z"/>
		<path class="st7" d="M217.96,268.31c12.86,0,25.72,0,38.58,0c0,2.52,0,5.04,0,7.56c-12.86,0-25.72,0-38.58,0
			C217.96,273.35,217.96,270.83,217.96,268.31z"/>
		<path class="st7" d="M217.96,315.45c12.86,0,25.72,0,38.58,0c0,2.52,0,5.04,0,7.56c-12.86,0-25.72,0-38.58,0
			C217.96,320.49,217.96,317.97,217.96,315.45z"/>
		<path class="st7" d="M217.96,362.58c12.86,0,25.72,0,38.58,0c0,2.52,0,5.04,0,7.56c-12.86,0-25.72,0-38.58,0
			C217.96,367.62,217.96,365.1,217.96,362.58z"/>
		<path class="st7" d="M217.96,409.72c12.86,0,25.72,0,38.58,0c0,2.52,0,5.04,0,7.56c-12.86,0-25.72,0-38.58,0
			C217.96,414.76,217.96,412.24,217.96,409.72z"/>
		<path class="st7" d="M217.96,456.86c12.86,0,25.72,0,38.58,0c0,2.52,0,5.04,0,7.56c-12.86,0-25.72,0-38.58,0
			C217.96,461.9,217.96,459.38,217.96,456.86z"/>
		<rect x="217.96" y="504" class="st7" width="38.58" height="7.56"/>
		<g>
			<g>
				<rect x="320.86" y="110.78" class="st8" width="15.47" height="47.34"/>
				<g>
					<path class="st8" d="M320.86,171.25c5.16,0,10.31,0,15.47,0c0,15.78,0,31.56,0,47.34c-5.16,0-10.31,0-15.47,0
						C320.86,202.81,320.86,187.03,320.86,171.25z"/>
					<path class="st8" d="M320.86,231.71c5.16,0,10.31,0,15.47,0c0,15.78,0,31.56,0,47.34c-5.16,0-10.31,0-15.47,0
						C320.86,263.27,320.86,247.49,320.86,231.71z"/>
					<path class="st8" d="M320.86,292.18c5.16,0,10.31,0,15.47,0c0,15.78,0,31.56,0,47.33c-5.16,0-10.31,0-15.47,0
						C320.86,323.73,320.86,307.96,320.86,292.18z"/>
					<path class="st8" d="M320.86,352.64c5.16,0,10.31,0,15.47,0c0,15.78,0,31.56,0,47.34c-5.16,0-10.31,0-15.47,0
						C320.86,384.2,320.86,368.42,320.86,352.64z"/>
					<path class="st8" d="M320.86,413.1c5.16,0,10.31,0,15.47,0c0,15.78,0,31.56,0,47.34c-5.16,0-10.31,0-15.47,0
						C320.86,444.66,320.86,428.88,320.86,413.1z"/>
				</g>
				<rect x="320.86" y="473.57" class="st8" width="15.47" height="47.34"/>
			</g>
			<g>
				<rect x="393.83" y="110.78" class="st8" width="15.47" height="47.34"/>
				<g>
					<path class="st8" d="M393.83,171.25c5.16,0,10.31,0,15.47,0c0,15.78,0,31.56,0,47.34c-5.16,0-10.31,0-15.47,0
						C393.83,202.81,393.83,187.03,393.83,171.25z"/>
					<ellipse class="st8" cx="401.56" cy="255.38" rx="10.94" ry="33.47"/>
					<path class="st8" d="M393.83,292.18c5.16,0,10.31,0,15.47,0c0,15.78,0,31.56,0,47.33c-5.16,0-10.31,0-15.47,0
						C393.83,323.73,393.83,307.96,393.83,292.18z"/>
					<ellipse class="st8" cx="401.56" cy="376.31" rx="10.94" ry="33.47"/>
					<ellipse class="st8" cx="401.56" cy="436.77" rx="10.94" ry="33.47"/>
				</g>
				<rect x="393.83" y="473.57" class="st8" width="15.47" height="47.34"/>
			</g>
		</g>
		<rect x="359.22" y="46.91" class="st6" width="15.12" height="500.82"/>
		<rect x="366.78" y="46.91" class="st7" width="7.56" height="500.82"/>
		<rect x="296.37" y="14.52" class="st8" width="23.07" height="32.39"/>
		<rect x="81.96" y="14.52" class="st7" width="46.94" height="15.91"/>
		<rect x="137.85" y="14.52" class="st7" width="46.94" height="15.91"/>
	</g>
	<polygon class="st9" points="0,330.76 10.56,330.76 10.56,297.35 40.35,297.35 40.35,252.79 65.21,252.79 65.21,297.35 
		99.66,297.35 99.66,344.28 142.62,344.28 142.62,444.53 163.76,444.53 163.76,356.02 178.42,356.02 178.42,278.25 225.36,278.25 
		225.36,348.86 241.27,348.86 241.27,435.78 290.13,435.78 290.13,547.73 0,547.73 	"/>
	<path class="st1" d="M167.94-77.63c1.79,0,3.46,0.5,4.88,1.37c2.85-5.24,8.42-8.8,14.81-8.8c7.12,0,13.21,4.42,15.68,10.67
		c2.2-4.07,6.51-6.84,11.46-6.84c3.79,0,7.2,1.62,9.58,4.21c3.03-5.2,8.67-8.69,15.13-8.69c6.58,0,12.32,3.64,15.3,9.01
		c1.08-0.45,2.27-0.69,3.51-0.69c4.57,0,8.36,3.34,9.07,7.71l15.87,1.48l-15.87,1.48c-0.71,4.37-4.5,7.71-9.07,7.71
		c-1.24,0-2.43-0.25-3.51-0.69c-2.99,5.37-8.72,9.01-15.3,9.01c-6.46,0-12.09-3.49-15.13-8.69c-2.38,2.59-5.79,4.21-9.58,4.21
		c-4.95,0-9.26-2.77-11.46-6.84c-2.46,6.25-8.55,10.67-15.68,10.67c-6.39,0-11.95-3.56-14.81-8.8c-1.42,0.87-3.1,1.37-4.88,1.37
		c-4.69,0-8.58-3.43-9.29-7.92l-15.87-1.48l15.87-1.48C159.36-74.2,163.25-77.63,167.94-77.63z"/>
	<path class="st1" d="M415.5-41.98c3.11,0,6.02,0.85,8.52,2.32c4.25-5.32,10.79-8.74,18.14-8.74c7.68,0,14.49,3.73,18.71,9.48
		c1.9-0.86,4-1.34,6.22-1.34c6.97,0,12.83,4.74,14.55,11.17l20.74,3.88l-20.74,3.88c-1.71,6.43-7.58,11.17-14.55,11.17
		c-2.22,0-4.32-0.48-6.22-1.34C456.64-5.74,449.83-2,442.15-2c-7.34,0-13.89-3.41-18.14-8.74c-2.5,1.47-5.41,2.32-8.52,2.32
		c-7.93,0-14.58-5.51-16.33-12.91l-20.69-3.87l20.69-3.87C400.92-36.47,407.56-41.98,415.5-41.98z"/>
	<path class="st1" d="M-42.93-53.21c2,0,3.88,0.52,5.5,1.43c3.04-4.18,7.97-6.9,13.54-6.9c5.14,0,9.74,2.32,12.81,5.97
		c0.9-0.23,1.84-0.36,2.81-0.36c3.52,0,6.66,1.64,8.69,4.19c2.32-3.74,6.47-6.24,11.19-6.24c6.61,0,12.08,4.87,13.02,11.21
		l12.57,1.95L24.63-40c-0.94,6.34-6.41,11.21-13.02,11.21c-4.73,0-8.87-2.49-11.19-6.24c-2.04,2.55-5.17,4.19-8.69,4.19
		c-0.97,0-1.91-0.12-2.81-0.36c-3.07,3.65-7.67,5.97-12.81,5.97c-5.57,0-10.5-2.72-13.54-6.9c-1.63,0.91-3.5,1.43-5.5,1.43
		c-5.55,0-10.17-4.02-11.09-9.31l-12.6-1.95l12.6-1.95C-53.1-49.19-48.48-53.21-42.93-53.21z"/>
</g>
</svg>
