<?xml version="1.0" encoding="utf-8"?>
<!-- Generator: Adobe Illustrator 26.0.2, SVG Export Plug-In . SVG Version: 6.00 Build 0)  -->
<svg version="1.1" xmlns="http://www.w3.org/2000/svg" xmlns:xlink="http://www.w3.org/1999/xlink" x="0px" y="0px"
	 viewBox="0 0 238.69 238.69" style="enable-background:new 0 0 238.69 238.69;" xml:space="preserve">
<style type="text/css">
	.st0{fill:#3C5E8B;}
	.st1{fill:#39AEFF;}
	.st2{fill:#E9F3FA;}
	.st3{fill:#CED7E1;}
</style>
<g id="Layer_2">
	<circle class="st0" cx="119.35" cy="119.35" r="119.35"/>
</g>
<g id="Layer_1">
	<path id="path4" class="st1" d="M104.31,131.35l-8-5l-4,4c0,12-14,18-20,18l-33,33c0,10,11,21,21,21l33-33c0-6,6-20,18-20l4-4l-5-8
		"/>
</g>
<g id="Layer_4">
	<path id="path4_00000161625835466497264330000012989028526198200739_" class="st2" d="M110.31,137.35l58-58l8-2l14-20l-6-6l-20,14
		l-2,8l-58,58"/>
</g>
<g id="Layer_3">
	<path class="st3" d="M59.31,46.35l-2,4l21,12c0,10-4,18-13,23l-21-12l-1,2c5,15,15,25,35,25c5,0,20,15,28,23l16-16
		c-8-8-26-26-26-31C96.31,58.35,91.31,46.35,59.31,46.35z"/>
	<path class="st3" d="M134.31,119.35l-16,16c12,12,28,28,28,33c0,18,5,30,37,30l2-4l-21-12c0-10,4-18,13-23l21,12l1-2
		c-5-15-15-25-35-25C159.31,144.35,146.31,131.35,134.31,119.35z"/>
</g>
</svg>
